<svg width="912" height="722" viewBox="0 0 912 722" fill="none" xmlns="http://www.w3.org/2000/svg">
<path d="M905.882 641.131C464.826 678.948 590.818 667.477 157.908 704.596C128.095 398.648 134.571 454.358 104.758 148.41C377.182 120.474 597.71 101.565 850.182 84.4956C880.487 387.35 876.438 346.881 905.882 641.131Z" fill="#00ABB6"/>
<path d="M903.938 643.947C830.596 650.213 757.25 656.447 683.901 662.65C614.199 668.605 544.379 674.379 474.668 680.239C368.507 689.118 262.455 698.082 156.314 707.15C155.718 707.201 153.245 707.508 153.131 706.373C147.995 654.017 142.925 601.655 137.921 549.288C132.625 494.688 127.528 440.071 122.342 385.557C114.935 306.998 107.33 228.455 99.6255 149.922C99.3589 147.273 104.616 145.774 106.701 145.596C164.691 139.688 222.69 133.874 280.718 128.344C470.768 110.2 661.193 94.7899 851.777 81.9427C852.372 81.8918 854.855 81.6798 854.959 82.7204C860.234 135.128 865.506 187.504 870.775 239.848C876.405 295.788 882.036 351.727 887.666 407.666C895.449 484.984 903.231 562.303 911.014 639.621C911.347 642.932 900.984 645.44 900.756 643.169C895.633 592.275 890.51 541.381 885.388 490.487C879.814 435.116 874.241 379.744 868.667 324.373C860.682 245.036 852.693 165.668 844.701 86.2683C845.732 86.5618 846.796 86.8526 847.893 87.1405C793.315 90.7856 738.758 94.6514 684.223 98.7379C490.1 113.223 296.309 131.02 102.818 150.794C105.206 149.318 107.561 147.844 109.884 146.374C115.02 198.73 120.093 251.123 125.104 303.553C130.389 358.058 135.486 412.676 140.673 467.19C148.08 545.749 155.685 624.291 163.389 702.825C162.292 702.537 161.231 702.278 160.206 702.047C232.159 695.9 304.115 689.785 376.073 683.701C445.279 677.788 514.503 672.065 583.718 666.247C691.765 657.207 799.803 648.073 907.831 638.844C914.781 638.25 907.314 643.659 903.938 643.947V643.947Z" fill="#00ABB6"/>
<path d="M113.502 670.858C83.6734 364.766 90.1421 420.408 60.3231 114.411C332.516 86.493 552.856 67.6007 805.115 50.5514C835.425 353.453 831.383 313.06 860.832 607.353C420.15 645.138 546.045 633.771 113.502 670.858Z" fill="#E6EAEE"/>
<rect width="750.726" height="234.044" transform="matrix(0.996312 -0.0858755 0.0988421 0.995112 89.7363 438.483)" fill="#D5DBE2"/>
<path d="M664.937 52.3401C681.357 33.4835 670.051 46.4668 699.483 12.6691C753.141 53.4833 799.476 90.1546 855.879 136.361C848.96 144.201 825.636 172.041 821.867 176.368C731.048 104.489 757.398 125.605 664.937 52.3401V52.3401Z" fill="#F0F2F5"/>
<path d="M50.6094 585.735C67.0206 566.784 55.7145 579.767 85.1461 545.969C138.814 586.878 185.139 623.455 241.552 669.756C234.732 677.587 211.308 705.435 207.54 709.763C116.819 637.876 143.061 658.905 50.6094 585.735Z" fill="#D8DEE4"/>
<path d="M254.359 371.908C254.195 372.01 254.026 372.068 253.854 372.083C253.681 372.098 253.336 372.128 252.817 372.172C251.609 372.277 250.163 372.185 248.481 371.896C246.893 371.686 245.293 371.346 243.68 370.877C242.162 370.487 240.808 369.995 239.618 369.403C238.515 368.802 237.809 368.255 237.499 367.76C237.296 366.559 237.131 365.312 237.005 364.018C236.879 362.725 236.758 361.474 236.641 360.266C235.701 350.605 235.411 340.453 235.77 329.809C236.215 319.158 237.482 307.566 239.573 295.032C239.801 293.795 239.999 292.255 240.169 290.414C240.416 288.479 240.651 286.414 240.873 284.22C238.96 286.039 236.755 288.883 234.258 292.753C231.752 296.537 229.141 301.026 226.424 306.22C223.785 311.32 221.154 316.941 218.529 323.084C215.983 329.133 213.708 335.289 211.704 341.551C209.692 347.728 208.022 353.831 206.693 359.862C205.449 365.885 204.855 371.416 204.91 376.457C200.648 375.609 197.638 374.652 195.88 373.587C194.209 372.514 193.289 371.115 193.121 369.389C192.97 367.837 193.232 365.596 193.905 362.667C194.578 359.738 195.589 356.258 196.939 352.226C198.288 348.195 199.984 343.699 202.027 338.737C204.061 333.689 206.321 328.274 208.807 322.492C211.648 315.895 214.441 309.694 217.186 303.889C220.017 298.076 222.811 292.789 225.57 288.026C228.329 283.264 231.06 279.113 233.763 275.573C236.553 272.025 239.375 269.258 242.229 267.271C243.438 267.166 245.065 267.329 247.109 267.761C249.24 268.185 251.297 268.746 253.281 269.444C255.35 270.134 257.165 270.89 258.725 271.712C260.363 272.44 261.298 273.098 261.529 273.687C260.555 276.207 259.483 279.954 258.312 284.926C257.141 289.899 255.99 295.523 254.858 301.797C253.813 308.064 252.849 314.715 251.965 321.75C251.16 328.692 250.631 335.349 250.38 341.721C251.905 336.804 253.715 331.689 255.81 326.375C257.984 320.967 260.295 315.635 262.745 310.377C265.186 305.033 267.687 299.858 270.248 294.852C272.895 289.838 275.498 285.263 278.056 281.127C280.606 276.904 282.99 273.218 285.209 270.068C287.514 266.911 289.593 264.556 291.445 263.003C292.653 262.898 294.28 263.062 296.325 263.493C298.455 263.918 300.513 264.479 302.496 265.177C304.566 265.867 306.381 266.623 307.941 267.444C309.579 268.172 310.513 268.831 310.745 269.42C308.46 274.576 306.625 280.781 305.24 288.034C303.855 295.287 302.806 302.859 302.093 310.749C301.466 318.632 301.138 326.446 301.107 334.191C301.154 341.842 301.471 348.686 302.058 354.724C302.251 356.708 302.452 358.779 302.661 360.935C302.871 363.092 303.175 365.327 303.574 367.641C302.366 367.746 300.881 367.7 299.121 367.505C297.455 367.389 295.777 367.143 294.086 366.767C292.481 366.385 290.998 365.904 289.636 365.326C288.282 364.835 287.308 364.224 286.715 363.492C286.511 362.292 286.346 361.045 286.221 359.751C286.095 358.457 285.973 357.206 285.856 355.999C284.917 346.338 284.627 336.185 284.985 325.542C285.43 314.891 286.698 303.298 288.788 290.765C289.016 289.527 289.245 287.855 289.476 285.747C289.706 283.639 289.928 281.446 290.142 279.165C287.842 280.583 285.305 283.151 282.532 286.871C279.837 290.497 277.132 294.907 274.415 300.101C271.776 305.201 269.192 310.862 266.662 317.083C264.218 323.297 262.046 329.618 260.146 336.046C258.324 342.38 256.847 348.684 255.715 354.959C254.662 361.139 254.21 366.789 254.359 371.908ZM365.185 332.419C363.811 338.888 362.383 344.796 360.9 350.144C359.417 355.492 357.763 360.42 355.938 364.927C354.12 369.521 352.092 373.742 349.854 377.589C347.625 381.523 345.115 385.264 342.325 388.811C338.756 393.296 334.961 396.8 330.939 399.324C326.927 401.933 322.805 403.421 318.574 403.788C316.415 403.975 314.232 403.904 312.023 403.573C309.909 403.322 307.903 402.843 306.006 402.138C304.031 401.526 302.298 400.72 300.808 399.718C299.239 398.81 298.094 397.779 297.373 396.623C297.272 395.588 297.788 394.63 298.922 393.749C300.05 394.608 300.985 395.266 301.726 395.724C302.467 396.182 303.199 396.553 303.924 396.838C304.562 397.131 305.273 397.287 306.059 397.306C306.758 397.332 307.582 397.304 308.532 397.222C313.454 396.795 318.103 394.913 322.481 391.576C326.953 388.317 331.001 383.834 334.626 378.127C338.345 372.498 341.563 365.739 344.279 357.848C347.003 350.044 349.121 341.379 350.633 331.854C349.678 333.676 348.502 335.909 347.105 338.553C345.708 341.197 344.137 343.856 342.395 346.529C340.644 349.117 338.785 351.496 336.819 353.667C334.94 355.831 333.041 357.344 331.122 358.206C329.732 358.24 328.235 358.065 326.631 357.682C325.121 357.378 323.633 356.855 322.168 356.112C320.789 355.362 319.523 354.428 318.369 353.31C317.216 352.192 316.391 350.872 315.895 349.349C315.652 346.848 315.545 344.856 315.575 343.375C315.597 341.807 315.736 340.099 315.991 338.25C316.45 334.905 317.212 331.098 318.277 326.83C319.429 322.555 320.805 318.347 322.405 314.207C324.083 309.973 325.963 306.026 328.045 302.366C330.206 298.613 332.528 295.628 335.011 293.412C335.702 293.352 336.574 293.363 337.627 293.446C338.671 293.442 339.772 293.564 340.928 293.812C342.084 294.06 343.205 294.397 344.291 294.825C345.369 295.166 346.335 295.692 347.187 296.401C346.321 297.346 344.53 300.415 341.813 305.609C339.096 310.803 336.244 318.183 333.255 327.75C332.916 328.736 332.532 330.161 332.104 332.025C331.675 333.889 331.255 335.839 330.844 337.875C330.519 339.904 330.232 341.886 329.985 343.821C329.738 345.757 329.669 347.285 329.778 348.406C329.845 349.096 329.982 349.606 330.188 349.936C330.48 350.259 330.721 350.499 330.911 350.657C332.44 350.263 334.39 348.833 336.763 346.365C339.127 343.812 341.714 339.977 344.526 334.862C346.296 331.577 347.898 328.35 349.332 325.181C350.757 321.926 352.138 318.675 353.477 315.427C354.902 312.172 356.362 308.827 357.856 305.392C359.351 301.957 360.967 298.424 362.704 294.794C363.826 294.697 365.047 294.722 366.368 294.868C367.688 295.014 368.974 295.251 370.224 295.577C371.467 295.818 372.545 296.159 373.458 296.602C374.45 296.951 375.187 297.365 375.669 297.845C373.546 303.771 371.583 309.552 369.779 315.188C367.976 320.825 366.445 326.568 365.185 332.419ZM421.48 295.83C421.553 297.477 421.418 299.228 421.076 301.085C420.812 302.847 420.406 304.492 419.858 306.018C419.301 307.458 418.681 308.686 417.996 309.702C417.311 310.719 416.623 311.257 415.932 311.317C414.974 311.313 414.35 310.714 414.06 309.522C414.035 309.263 414.084 308.867 414.206 308.335C414.406 307.709 414.602 307.039 414.794 306.327C414.986 305.614 415.135 304.905 415.241 304.2C415.433 303.488 415.503 302.873 415.453 302.355C415.336 301.147 414.937 300.182 414.257 299.458C413.655 298.64 412.88 298.272 411.93 298.355C408.476 298.654 406.052 301.039 404.658 305.509C403.264 309.979 402.974 316.398 403.787 324.765C403.871 325.628 403.965 326.142 404.068 326.307C405.873 326.063 407.466 325.882 408.847 325.762C410.307 325.548 411.727 325.382 413.109 325.262C413.212 325.427 413.288 325.768 413.339 326.286C413.414 327.062 413.296 327.638 412.984 328.013C411.04 328.616 409.481 329.143 408.305 329.593C407.208 329.949 406.37 330.283 405.79 330.594C405.211 330.905 404.852 331.241 404.713 331.601C404.652 331.867 404.646 332.259 404.697 332.776C404.764 333.467 404.831 334.157 404.898 334.847C405.051 335.529 405.178 336.388 405.279 337.423C405.983 344.669 404.563 350.664 401.019 355.408C397.561 360.144 392.369 363.16 385.442 364.457C384.225 364.475 382.94 364.239 381.586 363.747C380.232 363.256 378.905 362.588 377.603 361.744C376.389 360.892 375.291 359.9 374.31 358.767C373.338 357.721 372.62 356.609 372.157 355.431C371.839 352.153 372.228 348.988 373.324 345.935C374.412 342.796 376.013 340.004 378.126 337.559C380.317 335.021 382.943 332.923 386.004 331.266C389.142 329.515 392.598 328.345 396.372 327.757C396.163 325.601 395.741 323.506 395.109 321.473C394.476 319.44 393.808 317.497 393.105 315.645C392.481 313.698 391.865 311.838 391.257 310.064C390.641 308.204 390.245 306.368 390.068 304.556C389.842 302.227 390.095 299.9 390.827 297.575C391.55 295.164 392.596 292.942 393.966 290.909C395.327 288.79 396.977 286.951 398.915 285.391C400.853 283.831 402.92 282.695 405.114 281.983C406.089 282.16 407.417 282.827 409.097 283.987C410.854 285.052 412.586 286.294 414.291 287.712C415.996 289.129 417.533 290.605 418.901 292.14C420.261 293.587 421.12 294.818 421.48 295.83ZM384.475 358.538C386.464 357.496 388.285 356.077 389.939 354.281C391.679 352.477 393.139 350.48 394.319 348.29C395.5 346.1 396.365 343.807 396.916 341.41C397.553 339.007 397.762 336.683 397.544 334.44C395.843 334.849 394.023 335.833 392.085 337.393C390.138 338.867 388.351 340.631 386.722 342.686C385.085 344.654 383.758 346.683 382.742 348.772C381.726 350.861 381.29 352.638 381.432 354.105C381.617 356.003 382.631 357.48 384.475 358.538ZM429.401 297.101C428.919 296.621 428.426 295.576 427.921 293.967C427.408 292.272 427.093 290.82 426.975 289.613C429.237 289.591 431.412 289.576 433.501 289.569C435.582 289.475 437.49 289.397 439.225 289.333C440.269 286.633 441.403 283.969 442.627 281.34C443.93 278.617 445.171 276.161 446.352 273.971C447.61 271.687 448.772 269.76 449.838 268.189C450.991 266.61 451.892 265.575 452.541 265.084C453.404 265.009 454.5 265.088 455.829 265.321C457.235 265.46 458.655 265.728 460.086 266.126C461.51 266.437 462.808 266.803 463.981 267.223C465.153 267.644 465.981 268.094 466.463 268.574C464.191 272.076 462.244 275.333 460.621 278.345C459.076 281.262 457.4 284.626 455.594 288.436C457.321 288.286 459.044 288.093 460.762 287.857C462.567 287.614 464.367 287.327 466.164 286.998C466.638 287.391 467.037 287.922 467.364 288.59C467.681 289.171 467.874 289.807 467.941 290.497C463.861 292.416 458.807 293.725 452.78 294.421C451.024 298.749 449.484 303.058 448.159 307.348C446.913 311.544 445.87 315.593 445.03 319.493C444.276 323.386 443.718 327.044 443.354 330.468C443.076 333.885 443.068 336.93 443.328 339.604C443.697 343.4 445.327 345.39 448.218 345.574C450.775 345.004 453.173 344.144 455.412 342.993C457.651 341.842 459.605 340.454 461.276 338.831C461.87 339.562 462.235 340.183 462.371 340.693C461.929 341.514 461.11 342.499 459.916 343.646C458.807 344.786 457.566 345.894 456.19 346.97C454.823 348.133 453.482 349.119 452.168 349.929C450.853 350.738 449.855 351.216 449.172 351.363C447.005 351.464 444.801 351.176 442.558 350.501C440.316 349.825 438.225 348.919 436.286 347.783C434.434 346.638 432.871 345.339 431.597 343.883C430.316 342.342 429.599 340.795 429.448 339.242C429.247 337.172 429.255 334.561 429.471 331.411C429.765 328.167 430.25 324.646 430.925 320.847C431.601 317.048 432.432 313.061 433.42 308.887C434.407 304.713 435.528 300.571 436.783 296.461L429.401 297.101ZM471.396 334.691C471.32 333.915 471.271 332.962 471.248 331.833C471.304 330.611 471.412 329.036 471.573 327.108C471.725 325.094 471.926 322.685 472.176 319.879C472.512 317.067 472.923 313.682 473.41 309.725C473.498 308.848 473.753 307.434 474.173 305.484C474.593 303.534 475.177 301.482 475.925 299.33C476.752 297.083 477.759 294.908 478.948 292.805C480.223 290.693 481.807 289.077 483.701 287.956C485.202 288.174 487.233 288.911 489.793 290.168C492.345 291.338 494.606 293.1 496.576 295.451C494.808 297.866 493.342 300.255 492.179 302.618C491.102 304.973 490.119 307.407 489.232 309.919C488.43 312.424 487.681 315.012 486.982 317.682C486.37 320.345 485.642 323.148 484.796 326.092C484.081 328.59 483.46 331.166 482.935 333.821C482.401 336.39 482.183 338.627 482.281 340.532C482.432 342.085 482.494 343.167 482.466 343.778C482.533 344.468 482.351 344.832 481.919 344.87C481.574 344.9 480.862 344.744 479.784 344.402C478.706 344.061 477.564 343.508 476.358 342.742C475.229 341.883 474.166 340.801 473.169 339.496C472.171 338.191 471.58 336.589 471.396 334.691ZM490.675 276.391C490.624 275.873 490.678 275.086 490.837 274.028C490.363 273.634 489.912 273.021 489.482 272.189C489.14 271.348 488.935 270.583 488.867 269.893C488.792 269.117 488.778 268.074 488.825 266.765C488.95 265.363 489.109 263.87 489.304 262.287C489.498 260.705 489.775 259.072 490.133 257.388C490.484 255.618 490.851 254.02 491.235 252.595C492.271 252.505 493.552 252.698 495.079 253.175C496.683 253.558 498.309 254.156 499.955 254.97C501.593 255.698 503.114 256.567 504.518 257.576C505.914 258.499 507.003 259.404 507.786 260.293C506.929 261.325 505.807 262.77 504.42 264.63C503.026 266.404 501.686 268.303 500.403 270.328C499.111 272.267 497.941 274.108 496.891 275.852C495.842 277.596 495.178 278.828 494.899 279.548C493.847 279.465 492.898 279.112 492.054 278.49C491.201 277.781 490.742 277.081 490.675 276.391ZM501.28 317.878C500.802 312.961 501.334 308.13 502.876 303.386C504.495 298.549 506.773 294.219 509.711 290.398C512.726 286.483 516.244 283.264 520.265 280.741C524.364 278.124 528.702 276.617 533.278 276.22C537.768 275.831 541.331 276.652 543.966 278.686C546.602 280.719 548.121 283.806 548.523 287.946C548.716 289.93 548.603 291.897 548.183 293.847C547.841 295.704 547.266 297.406 546.459 298.955C545.738 300.496 544.819 301.794 543.703 302.847C542.578 303.815 541.411 304.351 540.202 304.456C539.166 304.546 538.057 304.337 536.876 303.831C535.773 303.23 534.826 302.443 534.034 301.468C539.308 295.704 541.735 290.666 541.316 286.353C541.073 283.851 539.958 282.687 537.972 282.859C536.245 283.008 534.166 284.015 531.735 285.879C529.305 287.742 527.01 290.116 524.853 293C521.542 297.462 519.141 302.324 517.65 307.585C516.237 312.753 515.799 318.098 516.335 323.618C517.014 330.605 518.975 334.654 522.218 335.765C523.496 335.48 524.969 334.961 526.638 334.207C528.306 333.454 530.087 332.516 531.98 331.395C533.866 330.188 535.781 328.847 537.728 327.374C539.761 325.893 541.699 324.333 543.542 322.694C543.913 322.923 544.253 323.285 544.562 323.78C544.871 324.275 545.047 324.739 545.089 325.17C543.797 327.109 542.285 329.023 540.553 330.913C538.822 332.803 536.991 334.571 535.061 336.217C533.123 337.777 531.207 339.117 529.313 340.238C527.515 341.438 525.894 342.231 524.451 342.617C521.577 342.605 518.812 341.932 516.157 340.596C513.511 339.347 511.12 337.597 508.986 335.346C506.938 333.088 505.202 330.455 503.778 327.447C502.44 324.432 501.607 321.242 501.28 317.878ZM596.704 279.854C597.567 279.779 598.577 279.865 599.733 280.113C600.967 280.267 602.084 280.562 603.084 280.997C604.076 281.346 604.899 281.753 605.553 282.218C606.294 282.676 606.686 283.12 606.728 283.551C605.353 287.324 604.112 291.129 603.005 294.965C601.889 298.715 600.977 302.317 600.268 305.771C599.559 309.225 599.044 312.445 598.725 315.43C598.492 318.408 598.48 320.975 598.69 323.132C598.925 325.547 599.381 327.552 600.058 329.146C600.727 330.653 601.7 331.7 602.975 332.285C602.006 333.065 600.723 333.742 599.124 334.315C597.525 334.889 596.079 335.232 594.783 335.344C590.121 335.748 587.479 332.759 586.859 326.376C586.381 321.459 587.368 314.588 589.819 305.764C588.477 309.882 586.856 313.806 584.955 317.538C583.046 321.183 581.055 324.443 578.984 327.32C576.912 330.196 574.752 332.601 572.502 334.536C570.33 336.377 568.268 337.556 566.315 338.074C563.104 338.178 560.367 336.893 558.104 334.219C555.834 331.458 554.48 327.835 554.044 323.349C553.575 318.519 554.116 313.34 555.668 307.812C557.221 302.284 559.372 297.096 562.122 292.247C564.959 287.391 568.13 283.288 571.636 279.94C575.133 276.505 578.643 274.548 582.167 274.068C583.055 274.252 584.055 274.688 585.167 275.374C586.365 276.053 587.489 276.869 588.539 277.822C589.676 278.767 590.644 279.77 591.444 280.832C592.235 281.807 592.712 282.679 592.874 283.448C589.47 284.265 586.051 286.258 582.614 289.426C579.265 292.587 576.276 296.326 573.648 300.642C571.098 304.865 569.096 309.344 567.64 314.081C566.185 318.817 565.65 323.169 566.036 327.137C566.195 328.776 566.9 329.759 568.151 330.086C570.605 329.351 573.292 326.987 576.212 322.993C579.124 318.913 582.53 312.746 586.43 304.492C587.142 302.865 587.924 301.057 588.776 299.07C589.714 297.074 590.644 294.993 591.565 292.826C592.486 290.658 593.364 288.494 594.199 286.334C595.112 284.08 595.947 281.92 596.704 279.854ZM617.004 322.457C616.635 318.662 617.026 313.278 618.177 306.306C619.319 299.248 621.087 291.005 623.479 281.577C627.415 266.535 631.245 253.981 634.969 243.916C638.77 233.757 642.651 225.765 646.613 219.941C647.666 220.024 648.96 220.347 650.495 220.91C652.116 221.465 653.702 222.11 655.254 222.846C656.797 223.495 658.172 224.202 659.378 224.967C660.671 225.725 661.515 226.348 661.911 226.835C655.948 235.355 650.863 244.408 646.658 253.993C642.452 263.578 638.808 274.463 635.726 286.648C633.089 297.141 631.219 306.567 630.116 314.927C629.005 323.2 628.713 330.053 629.242 335.488C629.384 336.954 629.472 337.86 629.506 338.205C629.539 338.55 629.616 338.891 629.736 339.229C628.51 339.161 627.445 338.949 626.539 338.593C625.634 338.236 625.023 337.767 624.705 337.186C624.49 336.77 623.952 336.164 623.092 335.369C622.239 334.66 621.49 334.116 620.843 333.737C620.016 333.287 619.238 332.006 618.511 329.894C617.775 327.696 617.272 325.217 617.004 322.457ZM378.586 410.067C378.988 414.207 378.42 418.215 376.881 422.088C375.42 425.869 373.192 429.367 370.196 432.585C367.191 435.716 363.584 438.464 359.373 440.83C355.162 443.196 350.5 444.948 345.387 446.088C347.059 449.857 349.003 453.733 351.219 457.717C353.513 461.606 355.923 465.355 358.451 468.963C360.978 472.572 363.563 475.871 366.204 478.86C368.846 481.849 371.389 484.282 373.836 486.158C373.488 487.058 372.924 487.976 372.144 488.914C371.451 489.844 370.577 490.703 369.521 491.49C368.561 492.356 367.497 493.057 366.33 493.593C365.258 494.208 364.204 494.561 363.168 494.651C361.268 494.815 359.367 494.067 357.464 492.405C355.561 490.743 353.514 488.05 351.324 484.326C349.211 480.507 346.86 475.579 344.271 469.541C341.759 463.408 338.91 456.044 335.724 447.448C334.774 447.53 333.824 447.612 332.874 447.695C331.925 447.777 331.182 447.754 330.647 447.627C330.01 447.334 329.303 446.786 328.529 445.984C326.684 451.189 325.068 456.07 323.683 460.626C322.297 465.183 321.072 469.595 320.006 473.863C319.019 478.037 318.153 482.113 317.408 486.092C316.74 489.978 316.211 493.938 315.82 497.973C312.817 497.538 310.148 496.508 307.814 494.883C305.479 493.259 303.203 490.89 300.984 487.777C301.254 486.971 301.528 486.208 301.807 485.488C302.163 484.674 302.58 483.594 303.059 482.248C303.529 480.815 304.096 479.026 304.758 476.881C305.506 474.729 306.447 471.863 307.579 468.286C308.798 464.701 310.2 460.317 311.786 455.134C313.459 449.944 315.458 443.638 317.784 436.216C318.855 432.905 319.748 430 320.463 427.502C321.265 424.997 321.949 422.633 322.516 420.409C323.076 418.099 323.553 415.839 323.947 413.63C324.42 411.328 324.863 408.723 325.277 405.817C321.44 407.541 317.878 409.416 314.592 411.44C311.384 413.371 308.75 415.383 306.689 417.475C305.862 417.025 304.966 416.32 304.002 415.36C303.124 414.392 302.282 413.334 301.473 412.186C300.657 410.952 299.927 409.711 299.283 408.462C298.639 407.213 298.224 406.075 298.037 405.047C300.459 403.097 303.456 401.228 307.026 399.44C310.682 397.644 314.576 396.045 318.706 394.643C322.828 393.155 327.061 391.918 331.406 390.932C335.751 389.947 339.823 389.289 343.622 388.96C353.983 388.061 362.222 389.522 368.34 393.34C374.45 397.073 377.865 402.649 378.586 410.067ZM345.928 401.938C345.399 402.767 344.6 404.402 343.531 406.843C342.463 409.285 341.224 412.219 339.816 415.647C338.486 418.981 337.055 422.628 335.525 426.588C334.08 430.541 332.675 434.446 331.309 438.305C337.784 437.744 343.683 436.623 349.006 434.944C354.328 433.265 358.87 431.175 362.632 428.674C366.386 426.087 369.2 423.233 371.073 420.113C373.024 416.899 373.824 413.481 373.472 409.858C373.053 405.545 371.18 402.402 367.854 400.429C364.519 398.369 359.614 397.62 353.138 398.182C351.67 398.309 350.211 398.522 348.76 398.822C347.3 399.036 345.759 399.3 344.135 399.615L345.928 401.938ZM422.196 424.161C422.37 429.539 421.869 434.237 420.692 438.253C419.507 442.183 417.589 445.742 414.938 448.93C412.366 452.023 409.12 454.914 405.202 457.603C401.284 460.291 396.667 462.953 391.351 465.589C391.401 466.106 391.412 466.671 391.385 467.282C391.435 467.8 391.489 468.36 391.548 468.964C391.657 470.085 391.857 471.242 392.147 472.435C392.437 473.628 392.848 474.723 393.38 475.721C393.913 476.718 394.601 477.529 395.445 478.151C396.281 478.688 397.303 478.904 398.512 478.799C400.843 478.597 403.081 477.881 405.225 476.651C407.369 475.421 409.363 473.987 411.207 472.348C413.128 470.616 414.868 468.812 416.427 466.937C418.064 464.969 419.503 463.191 420.741 461.605C421.68 462.306 422.486 462.976 423.157 463.614C419.775 469.126 415.92 473.81 411.593 477.664C407.344 481.425 403.193 483.96 399.141 485.268C393.116 485.095 388.244 483.343 384.524 480.012C380.883 476.587 378.81 472.287 378.307 467.111C377.964 463.574 378.091 459.953 378.688 456.248C379.364 452.449 380.402 448.793 381.801 445.279C383.279 441.671 385.037 438.257 387.075 435.036C389.199 431.807 391.49 428.955 393.949 426.48C396.494 423.998 399.128 421.986 401.852 420.445C404.662 418.897 407.491 417.999 410.34 417.752C414.363 417.925 418.314 420.062 422.196 424.161ZM413.674 429.206C411.376 429.753 409.051 430.912 406.698 432.682C404.345 434.451 402.172 436.728 400.178 439.51C398.271 442.285 396.579 445.476 395.101 449.084C393.623 452.692 392.559 456.524 391.909 460.582C398.481 456.533 403.812 451.808 407.902 446.408C411.983 440.922 413.907 435.188 413.674 429.206ZM435.184 430.864C435.033 429.311 434.977 427.837 435.016 426.442C435.14 425.04 435.502 423.834 436.101 422.825C436.691 421.73 437.565 420.871 438.724 420.249C439.874 419.54 441.442 419.1 443.428 418.928C444.636 418.823 445.987 418.836 447.48 418.968C449.06 419.092 450.228 419.469 450.986 420.099C450.783 421.596 450.607 422.916 450.457 424.059C450.393 425.196 450.342 426.462 450.303 427.857C450.343 429.158 450.412 430.761 450.51 432.667C450.599 434.486 450.744 436.865 450.942 439.806C451.34 445.686 451.549 450.974 451.57 455.67C451.669 460.272 451.25 464.918 450.313 469.61C450.346 469.955 450.493 470.116 450.752 470.094C451.955 469.032 453.288 467.525 454.753 465.571C456.217 463.618 457.747 461.441 459.342 459.041C460.929 456.555 462.503 453.939 464.065 451.194C465.627 448.449 467.063 445.758 468.374 443.122C470.094 439.319 471.942 434.592 473.918 428.941C475.893 423.289 477.4 417.287 478.437 410.934C478.955 410.889 479.615 410.962 480.417 411.154C481.297 411.251 482.143 411.439 482.953 411.717C483.842 411.901 484.605 412.139 485.243 412.431C485.967 412.717 486.471 412.977 486.756 413.214C486.944 416.938 486.406 420.812 485.143 424.836C483.966 428.852 482.431 432.769 480.538 436.587C478.645 440.404 476.602 444.018 474.408 447.426C472.215 450.835 470.195 453.794 468.349 456.303C464.674 461.492 460.906 466.169 457.044 470.331C453.268 474.486 448.66 478.582 443.219 482.621C440.89 481.953 439.007 480.942 437.569 479.587C436.14 478.32 435.35 476.909 435.199 475.357C435.098 474.322 435.201 473.138 435.507 471.807C435.891 470.382 436.284 468.608 436.687 466.485C437.082 464.276 437.34 461.557 437.462 458.328C437.67 455.092 437.535 451.015 437.057 446.098C436.78 443.252 436.417 440.413 435.968 437.581C435.596 434.656 435.335 432.417 435.184 430.864ZM489.854 463.572C489.778 462.795 489.729 461.843 489.706 460.714C489.762 459.491 489.87 457.916 490.031 455.988C490.183 453.974 490.384 451.565 490.634 448.76C490.97 445.947 491.381 442.562 491.867 438.606C491.956 437.728 492.211 436.314 492.631 434.364C493.051 432.414 493.635 430.363 494.383 428.21C495.21 425.964 496.217 423.789 497.406 421.685C498.681 419.574 500.265 417.957 502.159 416.836C503.66 417.054 505.691 417.791 508.251 419.048C510.803 420.219 513.064 421.98 515.034 424.332C513.266 426.747 511.8 429.135 510.637 431.498C509.56 433.853 508.577 436.287 507.69 438.799C506.888 441.305 506.138 443.892 505.44 446.562C504.828 449.225 504.1 452.028 503.254 454.972C502.539 457.47 501.918 460.046 501.393 462.701C500.859 465.27 500.641 467.507 500.739 469.413C500.89 470.965 500.952 472.047 500.924 472.659C500.991 473.349 500.809 473.712 500.377 473.75C500.032 473.78 499.32 473.624 498.242 473.283C497.164 472.941 496.022 472.388 494.816 471.623C493.687 470.764 492.624 469.681 491.627 468.376C490.629 467.071 490.038 465.469 489.854 463.572ZM509.132 405.271C509.082 404.754 509.136 403.966 509.295 402.909C508.821 402.515 508.37 401.901 507.94 401.069C507.597 400.229 507.393 399.463 507.325 398.773C507.25 397.997 507.236 396.954 507.283 395.646C507.408 394.243 507.567 392.75 507.762 391.168C507.956 389.585 508.233 387.952 508.591 386.268C508.942 384.498 509.309 382.9 509.693 381.475C510.729 381.385 512.01 381.579 513.537 382.055C515.141 382.438 516.767 383.036 518.413 383.851C520.051 384.578 521.572 385.447 522.976 386.456C524.372 387.379 525.461 388.285 526.244 389.174C525.387 390.205 524.265 391.65 522.878 393.51C521.484 395.284 520.144 397.183 518.861 399.208C517.569 401.147 516.399 402.988 515.349 404.732C514.3 406.476 513.636 407.708 513.357 408.428C512.305 408.345 511.356 407.993 510.512 407.37C509.659 406.661 509.2 405.961 509.132 405.271ZM562.334 412.01C562.508 417.388 562.007 422.085 560.83 426.102C559.645 430.032 557.727 433.591 555.076 436.778C552.504 439.872 549.258 442.763 545.34 445.451C541.422 448.14 536.805 450.802 531.489 453.437C531.539 453.955 531.55 454.519 531.523 455.131C531.573 455.648 531.628 456.209 531.686 456.813C531.795 457.934 531.995 459.091 532.285 460.284C532.575 461.476 532.986 462.572 533.519 463.569C534.051 464.567 534.739 465.377 535.583 466C536.419 466.536 537.441 466.752 538.65 466.647C540.981 466.445 543.219 465.729 545.363 464.499C547.508 463.27 549.502 461.835 551.345 460.197C553.266 458.465 555.006 456.661 556.566 454.786C558.203 452.817 559.641 451.04 560.88 449.454C561.819 450.155 562.624 450.825 563.295 451.462C559.913 456.975 556.058 461.658 551.731 465.513C547.482 469.274 543.331 471.809 539.279 473.117C533.254 472.943 528.382 471.191 524.663 467.86C521.021 464.436 518.949 460.135 518.446 454.96C518.102 451.423 518.229 447.802 518.826 444.097C519.502 440.298 520.54 436.641 521.94 433.127C523.417 429.52 525.175 426.105 527.213 422.884C529.337 419.655 531.629 416.804 534.087 414.329C536.632 411.846 539.266 409.835 541.99 408.294C544.8 406.745 547.629 405.848 550.479 405.601C554.501 405.774 558.452 407.91 562.334 412.01ZM553.812 417.055C551.515 417.602 549.189 418.76 546.836 420.53C544.483 422.3 542.31 424.576 540.317 427.359C538.41 430.134 536.717 433.325 535.239 436.933C533.762 440.54 532.697 444.373 532.047 448.431C538.619 444.381 543.95 439.657 548.04 434.257C552.121 428.771 554.046 423.037 553.812 417.055ZM574.187 459.652C574.019 457.926 573.957 455.496 574 452.361C574.13 449.218 574.321 445.809 574.574 442.134C574.912 438.451 575.286 434.678 575.694 430.815C576.188 426.945 576.72 423.463 577.29 420.369C578.019 416.217 579.444 412.962 581.565 410.603C583.765 408.151 586.635 406.771 590.175 406.464C592.074 406.3 593.96 406.441 595.832 406.887C597.79 407.326 598.988 408.005 599.426 408.924C597.123 411.212 595.346 413.975 594.093 417.215C592.919 420.362 592.029 423.745 591.423 427.364C590.895 430.889 590.552 434.529 590.394 438.283C590.315 441.943 590.171 445.391 589.963 448.628C592.444 444.585 594.789 440.946 597 437.71C599.288 434.38 601.337 431.723 603.147 429.739C605.58 427.006 607.192 424.778 607.983 423.057C608.765 421.249 609.405 419.324 609.903 417.28C610.27 415.682 610.698 413.818 611.188 411.688C611.764 409.551 612.831 407.544 614.39 405.669C614.727 405.553 615.457 405.446 616.579 405.349C617.443 405.274 618.354 405.239 619.312 405.243C620.356 405.239 621.323 405.329 622.211 405.513C623.1 405.697 623.863 405.935 624.501 406.228C625.139 406.521 625.526 406.922 625.663 407.432C624.458 409.363 623.439 412.322 622.608 416.309C621.768 420.209 621.095 424.486 620.59 429.14C620.084 433.794 619.665 438.441 619.333 443.08C618.992 447.633 618.67 451.489 618.367 454.646C618.696 454.444 619.406 453.686 620.497 452.374C621.589 451.061 622.78 449.436 624.072 447.497C625.45 445.551 626.855 443.428 628.286 441.13C629.803 438.823 631.108 436.579 632.202 434.397C633.6 431.753 634.712 429.308 635.538 427.061C636.442 424.721 637.162 422.267 637.696 419.698C638.316 417.121 638.825 414.294 639.222 411.215C639.611 408.049 639.988 404.32 640.355 400.026C640.806 399.291 641.874 398.633 643.559 398.052C645.321 397.377 646.937 396.976 648.405 396.848C649.7 396.736 650.67 396.869 651.317 397.248C651.355 402.116 650.954 406.5 650.114 410.401C649.36 414.293 648.167 418.137 646.533 421.933C644.891 425.641 642.778 429.435 640.194 433.312C637.602 437.103 634.526 441.284 630.965 445.856C629.492 447.723 627.864 449.778 626.079 452.02C624.381 454.255 622.67 456.361 620.946 458.337C619.301 460.22 617.716 461.836 616.193 463.186C614.757 464.528 613.606 465.237 612.743 465.312C610.757 465.484 609.041 464.85 607.595 463.409C606.149 461.969 605.309 460.041 605.074 457.626C604.831 455.124 604.707 452.96 604.704 451.134C604.779 449.214 604.974 447.196 605.291 445.081C605.625 443.138 605.858 441.509 605.991 440.192C606.211 438.868 606.361 437.725 606.442 436.761C606.608 435.789 606.701 434.955 606.721 434.257C606.74 433.56 606.759 432.862 606.778 432.165C606.121 432.57 605.286 433.381 604.272 434.6C603.251 435.733 602.207 437.084 601.14 438.656C600.066 440.141 598.995 441.669 597.929 443.24C596.863 444.811 595.991 446.148 595.315 447.251C593.892 449.636 592.66 451.743 591.619 453.573C590.578 455.403 589.572 457.143 588.6 458.793C587.715 460.436 586.834 462.121 585.957 463.85C585.072 465.493 584.027 467.28 582.822 469.211C579.975 468.588 577.863 467.466 576.487 465.846C575.196 464.218 574.43 462.153 574.187 459.652ZM694.539 402.634C694.612 404.281 694.478 406.032 694.136 407.888C693.872 409.651 693.465 411.296 692.917 412.822C692.361 414.262 691.74 415.49 691.055 416.506C690.37 417.523 689.682 418.061 688.992 418.12C688.034 418.117 687.409 417.518 687.119 416.326C687.094 416.067 687.143 415.671 687.265 415.139C687.466 414.512 687.662 413.843 687.854 413.13C688.046 412.418 688.194 411.709 688.3 411.004C688.492 410.291 688.563 409.676 688.512 409.159C688.395 407.951 687.996 406.985 687.317 406.261C686.715 405.444 685.939 405.076 684.989 405.159C681.535 405.458 679.112 407.843 677.718 412.313C676.324 416.783 676.033 423.202 676.847 431.569C676.93 432.432 677.024 432.946 677.127 433.111C678.932 432.867 680.525 432.686 681.906 432.566C683.366 432.352 684.786 432.186 686.168 432.066C686.271 432.231 686.348 432.572 686.398 433.09C686.473 433.866 686.355 434.442 686.043 434.817C684.099 435.42 682.54 435.947 681.365 436.397C680.267 436.753 679.429 437.086 678.85 437.398C678.271 437.709 677.911 438.044 677.772 438.404C677.711 438.671 677.706 439.063 677.756 439.58C677.823 440.27 677.89 440.96 677.957 441.65C678.11 442.333 678.238 443.192 678.338 444.227C679.042 451.473 677.622 457.468 674.078 462.211C670.621 466.947 665.428 469.964 658.502 471.26C657.284 471.279 655.999 471.042 654.645 470.551C653.291 470.059 651.964 469.392 650.663 468.548C649.448 467.696 648.35 466.704 647.37 465.571C646.397 464.525 645.68 463.412 645.217 462.235C644.898 458.957 645.287 455.792 646.383 452.739C647.471 449.6 649.072 446.808 651.185 444.363C653.377 441.825 656.002 439.727 659.063 438.07C662.201 436.319 665.658 435.149 669.432 434.561C669.222 432.404 668.801 430.31 668.168 428.277C667.535 426.244 666.867 424.301 666.165 422.448C665.54 420.502 664.924 418.642 664.316 416.868C663.7 415.007 663.304 413.171 663.128 411.36C662.901 409.031 663.154 406.704 663.886 404.379C664.609 401.967 665.656 399.745 667.025 397.713C668.387 395.594 670.036 393.755 671.975 392.195C673.913 390.635 675.979 389.499 678.174 388.787C679.148 388.963 680.476 389.631 682.156 390.79C683.914 391.856 685.645 393.097 687.35 394.515C689.055 395.933 690.592 397.409 691.96 398.943C693.32 400.391 694.18 401.622 694.539 402.634ZM657.535 465.342C659.523 464.3 661.344 462.881 662.998 461.084C664.738 459.281 666.198 457.284 667.379 455.094C668.559 452.904 669.424 450.611 669.975 448.214C670.612 445.81 670.822 443.487 670.604 441.244C668.902 441.653 667.082 442.637 665.144 444.197C663.198 445.67 661.41 447.435 659.781 449.49C658.144 451.458 656.818 453.487 655.802 455.576C654.786 457.665 654.349 459.442 654.491 460.909C654.676 462.806 655.69 464.284 657.535 465.342Z" fill="#00ABB6"/>
</svg>
