<svg width="564" height="396" viewBox="0 0 564 396" fill="none" xmlns="http://www.w3.org/2000/svg">
<g clip-path="url(#clip0_1062_1087)">
<path d="M288.046 395.161C305.009 395.161 318.761 381.46 318.761 364.559C318.761 347.658 305.009 333.957 288.046 333.957C271.083 333.957 257.331 347.658 257.331 364.559C257.331 381.46 271.083 395.161 288.046 395.161Z" fill="#00ABB6"/>
<path d="M471.538 393.441C488.721 388.3 506.989 382.939 520.617 370.716C532.794 359.793 541.016 343.115 535.971 326.735C530.936 310.388 515.856 299.488 500.287 294.067C491.457 290.993 482.218 289.287 472.983 287.947C462.944 286.49 452.861 285.297 442.783 284.148C401.973 279.498 361.01 276.657 319.894 275.625C299.606 275.116 279.322 275.129 259.031 275.422C240.909 275.684 221.824 275.678 205.013 268.004C191.941 262.037 180.076 251.181 176.433 236.915C172.228 220.446 179.984 203.676 191.109 191.749C196.974 185.462 203.828 180.171 210.898 175.306C218.568 170.028 226.506 165.123 234.616 160.545C250.588 151.533 267.287 143.863 284.538 137.615C293.049 134.532 301.685 131.872 310.397 129.418C317.753 127.346 325.132 125.271 332.242 122.448C345.986 116.99 359.058 107.746 362.552 92.5902C365.864 78.2264 360.28 62.6333 350.49 51.9627C339.164 39.6176 322.086 34.2059 305.713 33.3303C287.332 32.3473 269.375 36.9307 252.098 42.7475C233.672 48.9517 215.642 56.0854 196.826 61.1107C178.167 66.089 159.148 69.6115 139.94 71.646C130.537 72.6436 120.85 73.77 111.391 73.0063C103.464 72.3662 95.5768 70.0434 89.7344 64.4381C84.7249 59.6318 81.7407 53.0263 82.7667 46.0555C82.953 44.7894 84.8835 45.3277 84.6983 46.5861C83.4494 55.0715 89.2386 62.8905 96.3726 66.8958C104.618 71.5248 114.651 71.5312 123.83 71.0018C143.734 69.804 163.503 66.9567 182.932 62.4894C202.024 58.1449 220.434 51.9343 238.823 45.2999C256.287 38.9989 274.142 32.8491 292.8 31.4844C308.99 30.3002 326.02 32.65 340.124 41.0794C352.519 48.4877 361.634 60.8422 364.539 75.0194C367.377 88.8731 363.446 102.817 352.92 112.485C342.022 122.494 327.079 126.774 313.154 130.715C295.491 135.714 278.208 141.557 261.478 149.145C244.52 156.813 228.257 165.923 212.868 176.372C198.014 186.485 183.355 199.211 178.657 217.253C176.469 225.657 176.873 234.571 180.534 242.509C183.79 249.567 189.152 255.504 195.399 260.084C210.303 271.01 229.087 273.254 247.089 273.477C267.308 273.728 287.528 273.048 307.754 273.378C348.974 274.052 390.109 276.552 431.16 280.878C441.446 281.962 451.72 283.161 461.98 284.475C471.209 285.656 480.469 286.83 489.542 288.928C505.675 292.659 521.374 299.833 531.402 313.462C535.853 319.369 538.61 326.369 539.379 333.716C540.081 341.382 538.198 349.063 534.719 355.883C527.018 370.978 512.595 380.579 497.278 386.887C489.074 390.265 480.564 392.825 472.07 395.366C470.833 395.736 470.304 393.811 471.538 393.441L471.538 393.441Z" fill="#F2F2F2"/>
<path d="M84.0602 62.2012C92.9107 62.2012 100.085 55.053 100.085 46.2351C100.085 37.4173 92.9107 30.269 84.0602 30.269C75.2098 30.269 68.0352 37.4173 68.0352 46.2351C68.0352 55.053 75.2098 62.2012 84.0602 62.2012Z" fill="#F2F2F2"/>
<path d="M195.234 92.4703C204.084 92.4703 211.259 85.322 211.259 76.5042C211.259 67.6863 204.084 60.5381 195.234 60.5381C186.384 60.5381 179.209 67.6863 179.209 76.5042C179.209 85.322 186.384 92.4703 195.234 92.4703Z" fill="#F2F2F2"/>
<path d="M289.382 31.9322C298.232 31.9322 305.407 24.7839 305.407 15.9661C305.407 7.14826 298.232 0 289.382 0C280.531 0 273.356 7.14826 273.356 15.9661C273.356 24.7839 280.531 31.9322 289.382 31.9322Z" fill="#F2F2F2"/>
<path d="M348.14 99.7881C356.991 99.7881 364.165 92.6398 364.165 83.822C364.165 75.0042 356.991 67.8559 348.14 67.8559C339.29 67.8559 332.115 75.0042 332.115 83.822C332.115 92.6398 339.29 99.7881 348.14 99.7881Z" fill="#F2F2F2"/>
<path d="M268.682 178.288C277.533 178.288 284.707 171.14 284.707 162.322C284.707 153.504 277.533 146.356 268.682 146.356C259.832 146.356 252.657 153.504 252.657 162.322C252.657 171.14 259.832 178.288 268.682 178.288Z" fill="#F2F2F2"/>
<path d="M167.858 216.207C176.709 216.207 183.883 209.059 183.883 200.241C183.883 191.424 176.709 184.275 167.858 184.275C159.008 184.275 151.833 191.424 151.833 200.241C151.833 209.059 159.008 216.207 167.858 216.207Z" fill="#F2F2F2"/>
<path d="M274.692 275.415C283.542 275.415 290.717 268.267 290.717 259.449C290.717 250.631 283.542 243.483 274.692 243.483C265.842 243.483 258.667 250.631 258.667 259.449C258.667 268.267 265.842 275.415 274.692 275.415Z" fill="#F2F2F2"/>
<path d="M389.539 308.678C398.389 308.678 405.564 301.53 405.564 292.712C405.564 283.894 398.389 276.746 389.539 276.746C380.688 276.746 373.514 283.894 373.514 292.712C373.514 301.53 380.688 308.678 389.539 308.678Z" fill="#F2F2F2"/>
<path d="M523.749 301.36C532.599 301.36 539.774 294.212 539.774 285.394C539.774 276.576 532.599 269.428 523.749 269.428C514.898 269.428 507.724 276.576 507.724 285.394C507.724 294.212 514.898 301.36 523.749 301.36Z" fill="#F2F2F2"/>
<path d="M284.756 45.2395C236.753 45.5774 197.449 84.4429 196.767 132.266C196.76 132.707 196.757 135.812 196.758 139.872C196.758 145.826 199.132 151.536 203.357 155.746C207.583 159.956 213.313 162.321 219.289 162.322H219.289C222.251 162.321 225.184 161.739 227.921 160.609C230.657 159.478 233.143 157.822 235.236 155.734C237.33 153.646 238.99 151.167 240.122 148.44C241.253 145.712 241.834 142.789 241.832 139.838C241.83 137.076 241.828 135.164 241.828 135.047C241.827 127.656 243.756 120.392 247.427 113.969C251.098 107.546 256.384 102.186 262.764 98.4165C269.145 94.6465 276.401 92.5963 283.818 92.4676C291.235 92.3389 298.558 94.1361 305.067 97.6825C311.575 101.229 317.045 106.402 320.938 112.693C324.831 118.985 327.013 126.177 327.27 133.564C327.527 140.95 325.849 148.276 322.402 154.821C318.955 161.366 313.858 166.904 307.611 170.89L307.619 170.899C307.619 170.899 275.55 191.469 265.773 219.686L265.781 219.688C264.062 225.469 263.191 231.467 263.195 237.496C263.195 239.974 263.341 261.659 263.624 279.259C263.723 285.331 266.214 291.122 270.56 295.381C274.906 299.64 280.758 302.027 286.854 302.025H286.854C289.917 302.025 292.95 301.422 295.778 300.249C298.606 299.077 301.173 297.359 303.332 295.194C305.492 293.03 307.2 290.461 308.359 287.636C309.518 284.811 310.105 281.786 310.086 278.734C309.988 262.616 309.935 243.847 309.935 242.485C309.935 225.159 326.711 207.895 340.492 196.637C356.36 183.674 367.78 166.007 372.366 146.079C373.381 141.976 373.941 137.774 374.035 133.55C374.035 121.899 371.721 110.363 367.226 99.6067C362.732 88.8506 356.145 79.0869 347.847 70.8782C339.548 62.6695 329.701 56.178 318.873 51.7777C308.045 47.3775 296.45 45.1554 284.756 45.2395V45.2395Z" fill="#00ABB6"/>
<path d="M563.205 396H0.794688C0.584231 395.999 0.382606 395.916 0.234006 395.767C0.0854054 395.619 0.00195312 395.418 0.00195312 395.208C0.00195312 394.998 0.0854054 394.797 0.234006 394.649C0.382606 394.5 0.584231 394.416 0.794688 394.416H563.205C563.415 394.416 563.618 394.499 563.767 394.648C563.916 394.796 564 394.998 564 395.208C564 395.418 563.916 395.619 563.767 395.768C563.618 395.917 563.415 396 563.205 396V396Z" fill="#3F3D56"/>
<path d="M419.623 181.612C430.686 181.612 439.655 172.676 439.655 161.654C439.655 150.632 430.686 141.696 419.623 141.696C408.56 141.696 399.592 150.632 399.592 161.654C399.592 172.676 408.56 181.612 419.623 181.612Z" fill="#2F2E41"/>
<path d="M382.607 387.264H374.421L370.526 355.805H382.609L382.607 387.264Z" fill="#A0616A"/>
<path d="M368.574 384.933H384.361V394.836H358.634C358.634 393.536 358.891 392.248 359.39 391.047C359.89 389.845 360.622 388.753 361.545 387.834C362.468 386.914 363.564 386.184 364.77 385.687C365.976 385.189 367.269 384.933 368.574 384.933Z" fill="#2F2E41"/>
<path d="M446.039 387.264H437.854L433.959 355.805H446.041L446.039 387.264Z" fill="#A0616A"/>
<path d="M432.007 384.933H447.794V394.836H422.066C422.066 393.536 422.324 392.248 422.823 391.047C423.323 389.845 424.055 388.753 424.978 387.834C425.901 386.914 426.997 386.184 428.203 385.687C429.409 385.189 430.701 384.933 432.007 384.933V384.933Z" fill="#2F2E41"/>
<path d="M416.578 181.728C425.636 181.728 432.978 174.413 432.978 165.389C432.978 156.365 425.636 149.049 416.578 149.049C407.521 149.049 400.179 156.365 400.179 165.389C400.179 174.413 407.521 181.728 416.578 181.728Z" fill="#A0616A"/>
<path d="M426.353 234.439L433.691 217.642C435.473 213.701 435.984 209.307 435.153 205.065C434.322 200.823 432.19 196.942 429.051 193.959C428.406 193.324 427.721 192.73 427.001 192.182C423.38 189.36 418.918 187.822 414.321 187.812C411.23 187.824 408.178 188.5 405.374 189.794C405.133 189.901 404.9 190.014 404.659 190.127C404.198 190.346 403.744 190.586 403.304 190.832C400.429 192.476 397.983 194.771 396.162 197.53C394.341 200.29 393.196 203.437 392.82 206.718L389.582 233.754C388.768 235.876 359.709 312.514 369.871 371.023C369.98 371.647 370.285 372.221 370.744 372.661C371.203 373.1 371.791 373.381 372.422 373.464L382.725 374.861C383.477 374.964 384.24 374.778 384.861 374.343C385.482 373.907 385.914 373.253 386.07 372.513L403.357 290.414C403.465 289.904 403.741 289.444 404.142 289.109C404.542 288.774 405.044 288.582 405.567 288.564C406.09 288.547 406.604 288.704 407.026 289.012C407.449 289.319 407.755 289.759 407.897 290.261L432.322 376.597C432.496 377.225 432.872 377.778 433.392 378.172C433.912 378.566 434.547 378.78 435.2 378.779C435.395 378.778 435.589 378.76 435.781 378.726L448.367 376.311C449.099 376.175 449.753 375.771 450.202 375.179C450.65 374.587 450.861 373.85 450.791 373.112C448.942 352.562 439.113 249.627 426.353 234.439Z" fill="#2F2E41"/>
<path d="M352.845 178.986C352.731 179.958 352.833 180.942 353.142 181.87C353.451 182.799 353.961 183.648 354.636 184.358C355.31 185.069 356.133 185.624 357.046 185.983C357.958 186.343 358.939 186.498 359.919 186.44L369.086 208.388L376.02 198.147L366.252 178.874C366.043 177.241 365.241 175.74 363.996 174.657C362.751 173.574 361.151 172.983 359.499 172.997C357.846 173.011 356.256 173.628 355.03 174.732C353.803 175.836 353.026 177.35 352.845 178.986L352.845 178.986Z" fill="#A0616A"/>
<path d="M415.67 256.539C416.644 256.423 417.581 256.096 418.415 255.58C419.249 255.064 419.959 254.372 420.496 253.553C421.032 252.734 421.382 251.808 421.52 250.839C421.658 249.871 421.582 248.884 421.296 247.949L440.583 233.953L428.971 229.621L412.436 243.576C410.89 244.158 409.613 245.285 408.846 246.744C408.079 248.202 407.875 249.89 408.273 251.488C408.672 253.086 409.645 254.483 411.008 255.414C412.371 256.345 414.03 256.745 415.67 256.539V256.539Z" fill="#A0616A"/>
<path d="M384.228 223.02C383.488 223.02 382.751 222.947 382.025 222.804C380.271 222.471 378.626 221.714 377.235 220.598C375.843 219.483 374.749 218.043 374.048 216.407L361.205 200.804C360.933 200.475 360.736 200.091 360.625 199.679C360.515 199.266 360.494 198.836 360.564 198.415C360.634 197.994 360.794 197.593 361.033 197.239C361.271 196.884 361.583 196.585 361.947 196.36L371.084 190.725C371.421 190.517 371.797 190.377 372.188 190.315C372.58 190.252 372.98 190.267 373.366 190.359C373.752 190.451 374.116 190.619 374.436 190.852C374.757 191.085 375.028 191.378 375.234 191.716L384.286 206.574L401.621 193.81C403.001 193.089 404.595 192.887 406.113 193.241C407.63 193.594 408.969 194.48 409.886 195.736C410.802 196.992 411.234 198.534 411.103 200.081C410.972 201.629 410.287 203.077 409.172 204.163L391.871 219.887C389.837 221.895 387.09 223.021 384.228 223.02Z" fill="#2F2E41"/>
<path d="M431.068 246.485C431.044 246.485 431.021 246.485 430.997 246.485C430.576 246.475 430.161 246.376 429.78 246.196C429.4 246.016 429.061 245.759 428.787 245.44L420.663 235.998C420.386 235.676 420.181 235.3 420.061 234.894C419.941 234.487 419.91 234.06 419.968 233.641C420.026 233.221 420.173 232.819 420.398 232.46C420.624 232.101 420.924 231.794 421.278 231.559L436.489 221.455L422.708 204.949C421.907 203.617 421.613 202.043 421.88 200.513C422.147 198.983 422.958 197.601 424.164 196.617C425.37 195.634 426.891 195.116 428.449 195.157C430.007 195.199 431.497 195.798 432.649 196.844L449.397 213.151C450.716 214.351 451.722 215.852 452.33 217.524C452.938 219.197 453.129 220.991 452.888 222.754C452.647 224.516 451.98 226.194 450.944 227.643C449.909 229.092 448.536 230.269 446.943 231.074L433.254 245.545C432.973 245.842 432.634 246.078 432.258 246.24C431.882 246.402 431.477 246.485 431.068 246.485Z" fill="#2F2E41"/>
<path d="M412.409 211.693C412.278 211.693 412.148 211.685 412.019 211.669C411.453 211.6 410.919 211.371 410.48 211.009C410.041 210.648 409.715 210.168 409.541 209.627L403.437 190.98C403.284 190.509 403.307 189.998 403.503 189.543C403.699 189.087 404.053 188.718 404.501 188.503L404.699 188.409C404.879 188.324 405.057 188.24 405.238 188.16C408.085 186.844 411.183 186.158 414.321 186.149C418.394 186.156 422.377 187.348 425.78 189.579C426.236 189.882 426.555 190.351 426.667 190.885C426.78 191.419 426.677 191.976 426.382 192.436L414.93 210.31C414.662 210.734 414.29 211.084 413.849 211.326C413.408 211.568 412.912 211.694 412.409 211.693V211.693Z" fill="#E6E6E6"/>
<path d="M435.416 152.744C439.036 152.744 441.971 149.82 441.971 146.214C441.971 142.607 439.036 139.683 435.416 139.683C431.796 139.683 428.861 142.607 428.861 146.214C428.861 149.82 431.796 152.744 435.416 152.744Z" fill="#2F2E41"/>
<path d="M412.945 139.035C408.341 139.035 403.925 140.858 400.67 144.101C397.414 147.345 395.585 151.745 395.585 156.332V163.65H404.619L408.939 156.332L410.236 163.65H437.651L430.306 156.332C430.306 151.745 428.477 147.345 425.221 144.101C421.965 140.858 417.55 139.035 412.945 139.035V139.035Z" fill="#2F2E41"/>
<path d="M438.785 141.74C439.51 139.482 441.011 137.551 443.023 136.286C445.036 135.021 447.432 134.504 449.79 134.825C453.967 135.52 457.269 138.866 459.237 142.602C461.205 146.339 462.114 150.52 463.437 154.529C464.76 158.537 466.636 162.567 469.976 165.162C473.316 167.757 478.44 168.461 481.721 165.792C481.346 168.573 480.103 171.167 478.167 173.207C476.232 175.246 473.702 176.628 470.935 177.156C468.168 177.684 465.305 177.332 462.75 176.15C460.194 174.968 458.077 173.016 456.697 170.569C454.966 167.501 454.519 163.905 454.006 160.423C453.493 156.941 452.826 153.338 450.759 150.484C448.693 147.63 444.825 145.765 441.542 147.065L438.785 141.74Z" fill="#2F2E41"/>
<path d="M225.651 151.703C219.675 151.703 213.944 149.337 209.719 145.127C205.494 140.917 203.12 135.207 203.12 129.254C203.119 125.193 203.122 122.089 203.128 121.647C203.318 107.739 206.834 94.0762 213.384 81.7925C202.622 96.47 196.705 114.117 196.451 132.291C196.445 132.733 196.442 135.837 196.442 139.898C196.443 145.851 198.817 151.561 203.042 155.771C207.267 159.981 212.998 162.347 218.974 162.347V162.347C223.884 162.346 228.66 160.747 232.575 157.794C236.49 154.842 239.331 150.696 240.666 145.988C236.541 149.674 231.192 151.71 225.651 151.703V151.703Z" fill="#3F3D56"/>
<path d="M286.283 92.543C293.191 92.8717 299.916 94.866 305.881 98.3546C311.845 101.843 316.87 106.722 320.525 112.572C324.18 118.422 326.356 125.068 326.864 131.94C327.373 138.812 326.201 145.704 323.447 152.025C327.43 147.365 330.358 141.904 332.03 136.014C333.702 130.124 334.08 123.945 333.138 117.896C332.196 111.848 329.956 106.073 326.571 100.965C323.186 95.857 318.735 91.5365 313.522 88.2978C308.309 85.0592 302.456 82.9785 296.363 82.1978C290.27 81.417 284.079 81.9544 278.213 83.7735C272.347 85.5925 266.944 88.6503 262.371 92.7385C257.799 96.8266 254.165 101.849 251.718 107.463C255.948 102.505 261.264 98.5816 267.257 95.9947C273.25 93.4078 279.759 92.2269 286.283 92.543V92.543Z" fill="#3F3D56"/>
<path d="M293.216 291.407C287.12 291.408 281.268 289.022 276.922 284.763C272.576 280.503 270.085 274.713 269.986 268.64C269.703 251.04 269.557 229.355 269.557 226.877C269.553 220.848 270.424 214.85 272.143 209.07L272.135 209.068C273.15 206.166 274.377 203.342 275.804 200.618C271.422 206.435 267.936 212.87 265.458 219.712L265.466 219.714C263.747 225.494 262.876 231.492 262.88 237.521C262.88 239.999 263.026 261.684 263.309 279.284C263.408 285.357 265.899 291.147 270.245 295.407C274.591 299.666 280.443 302.052 286.539 302.051V302.051C291.565 302.05 296.455 300.425 300.477 297.421C304.498 294.416 307.433 290.194 308.841 285.387C304.57 289.267 298.996 291.415 293.216 291.407V291.407Z" fill="#3F3D56"/>
<path d="M84.4932 387.567L92.6787 387.566L96.5735 356.108L84.4912 356.108L84.4932 387.567Z" fill="#FFB8B8"/>
<path d="M108.466 395.139L82.7384 395.14L82.7379 385.237L98.5252 385.236C101.162 385.236 103.69 386.279 105.554 388.136C107.418 389.994 108.466 392.513 108.466 395.139V395.139L108.466 395.139Z" fill="#2F2E41"/>
<path d="M55.1133 387.567L63.2988 387.566L67.1936 356.108L55.1113 356.108L55.1133 387.567Z" fill="#FFB8B8"/>
<path d="M79.0869 395.139L53.3595 395.14L53.359 385.237L69.1463 385.236C71.7826 385.236 74.311 386.279 76.1752 388.136C78.0394 389.994 79.0868 392.513 79.0869 395.139V395.139L79.0869 395.139Z" fill="#2F2E41"/>
<path d="M62.267 377.892L54.2712 377.473C53.8589 377.451 53.455 377.348 53.0829 377.17C52.7108 376.992 52.3779 376.742 52.1035 376.434C51.8291 376.127 51.6186 375.768 51.4842 375.379C51.3499 374.991 51.2944 374.579 51.3209 374.168L60.8776 268.748L104.887 280.58L109.127 279.428L95.8677 372.753C95.7547 373.455 95.4048 374.097 94.8757 374.575C94.3467 375.052 93.6701 375.335 92.9577 375.377L84.3383 375.777C83.9073 375.801 83.476 375.735 83.0717 375.585C82.6674 375.434 82.2989 375.201 81.9894 374.902C81.68 374.602 81.4363 374.241 81.2738 373.843C81.1113 373.444 81.0336 373.017 81.0455 372.587L82.6072 316.575C82.6145 316.316 82.5242 316.063 82.3541 315.867C82.1839 315.672 81.9463 315.546 81.6879 315.516C81.4296 315.486 81.1694 315.553 80.9585 315.705C80.7476 315.857 80.6013 316.082 80.5485 316.335L65.487 375.418C65.3448 376.119 64.963 376.749 64.4067 377.201C63.8504 377.653 63.154 377.899 62.4361 377.896C62.3801 377.896 62.3238 377.895 62.267 377.892Z" fill="#2F2E41"/>
<path d="M85.9622 182.492C95.0195 182.492 102.362 175.177 102.362 166.153C102.362 157.129 95.0195 149.814 85.9622 149.814C76.9049 149.814 69.5625 157.129 69.5625 166.153C69.5625 175.177 76.9049 182.492 85.9622 182.492Z" fill="#FFB8B8"/>
<path d="M58.6586 214.157L60.4618 252.92L61.1137 267.022C61.1397 267.636 61.3489 268.228 61.7145 268.723C62.0802 269.218 62.5857 269.593 63.1664 269.8L105.457 285.063C105.798 285.189 106.16 285.253 106.525 285.249C106.941 285.251 107.354 285.17 107.738 285.009C108.122 284.849 108.47 284.613 108.761 284.316C109.051 284.018 109.279 283.666 109.43 283.279C109.581 282.892 109.652 282.479 109.639 282.064L107.905 212.367C107.791 206.649 105.678 201.15 101.931 196.817C98.1837 192.484 93.0365 189.59 87.377 188.633C86.9679 188.571 86.5517 188.509 86.1356 188.453C82.6262 188.019 79.0639 188.357 75.6995 189.442C72.335 190.527 69.2501 192.333 66.6617 194.734C63.9816 197.19 61.8756 200.203 60.4926 203.559C59.1097 206.915 58.4836 210.533 58.6586 214.157L58.6586 214.157Z" fill="#CCCCCC"/>
<path d="M125.658 277.328C124.658 277.019 123.744 276.481 122.99 275.757C122.235 275.034 121.661 274.144 121.313 273.16C120.964 272.176 120.852 271.125 120.984 270.09C121.116 269.055 121.489 268.065 122.074 267.199L107.732 248.199L120.108 247.436L131.829 265.595C133.084 266.562 133.957 267.938 134.296 269.482C134.634 271.026 134.416 272.639 133.68 274.039C132.944 275.439 131.736 276.535 130.269 277.137C128.803 277.738 127.17 277.806 125.658 277.328H125.658Z" fill="#FFB8B8"/>
<path d="M115.575 263.76C115.195 263.607 114.849 263.38 114.558 263.092C114.267 262.804 114.036 262.462 113.878 262.085L92.2721 210.798C91.8481 209.794 91.627 208.716 91.6212 207.627C91.6154 206.537 91.8252 205.457 92.2385 204.449C92.6518 203.44 93.2605 202.523 94.0299 201.749C94.7993 200.975 95.7142 200.359 96.7224 199.938C97.7306 199.516 98.8123 199.297 99.9057 199.292C100.999 199.287 102.083 199.497 103.095 199.909C104.107 200.322 105.027 200.929 105.803 201.696C106.58 202.463 107.197 203.375 107.619 204.38L129.225 255.668C129.544 256.428 129.548 257.284 129.235 258.047C128.922 258.81 128.318 259.418 127.555 259.738L117.963 263.749C117.586 263.908 117.18 263.991 116.77 263.993C116.36 263.995 115.954 263.916 115.575 263.76L115.575 263.76Z" fill="#CCCCCC"/>
<path d="M80.6896 261.951L101.442 222.363C101.842 221.602 102.529 221.029 103.352 220.772C104.175 220.515 105.067 220.593 105.832 220.99L135.953 236.664C136.717 237.062 137.292 237.747 137.55 238.567C137.808 239.387 137.73 240.275 137.331 241.038L116.579 280.626C116.179 281.387 115.492 281.96 114.669 282.217C113.846 282.474 112.954 282.396 112.189 281.999L82.0674 266.325C81.3033 265.927 80.729 265.242 80.4707 264.422C80.2125 263.602 80.2912 262.714 80.6896 261.951Z" fill="#3F3D56"/>
<path d="M94.6072 243.864C94.2383 242.888 93.6454 242.011 92.8758 241.303C92.1062 240.595 91.1812 240.077 90.1747 239.788C89.1682 239.5 88.1079 239.45 87.0786 239.643C86.0493 239.835 85.0794 240.265 84.2463 240.897L64.3629 227.756L64.3291 240.109L83.2159 250.695C84.2585 251.886 85.6886 252.673 87.2555 252.918C88.8224 253.164 90.426 252.852 91.785 252.037C93.144 251.222 94.1717 249.956 94.6878 248.462C95.2038 246.968 95.1753 245.34 94.6072 243.864V243.864Z" fill="#FFB8B8"/>
<path d="M69.4674 246.643L53.2175 233.818C51.4596 233.23 49.8711 232.226 48.5885 230.891C47.3059 229.557 46.3675 227.932 45.8538 226.157C45.3401 224.382 45.2664 222.509 45.6391 220.699C46.0119 218.889 46.8198 217.196 47.9937 215.766L62.7482 196.501C63.7735 195.252 65.2155 194.413 66.8106 194.137C68.4056 193.861 70.0472 194.166 71.4352 194.996C72.8233 195.826 73.865 197.127 74.3701 198.659C74.8751 200.192 74.8097 201.854 74.1859 203.342L62.5117 222.369L79.6679 230.476C80.0668 230.665 80.4211 230.935 80.7072 231.27C80.9934 231.605 81.2049 231.997 81.3279 232.42C81.4508 232.842 81.4824 233.286 81.4205 233.721C81.3586 234.157 81.2046 234.574 80.9687 234.946L74.0434 245.866C73.8092 246.234 73.5 246.55 73.1358 246.792C72.7716 247.034 72.3604 247.197 71.9289 247.27C71.9118 247.273 71.8945 247.276 71.8773 247.278C71.4533 247.342 71.0207 247.319 70.6062 247.209C70.1917 247.1 69.8041 246.907 69.4674 246.643V246.643Z" fill="#CCCCCC"/>
<path d="M73.5706 177.094C73.5002 176.889 73.4779 176.671 73.5053 176.456C73.5328 176.241 73.6092 176.035 73.7289 175.854C73.8485 175.673 74.0082 175.521 74.1956 175.411C74.383 175.301 74.5932 175.235 74.8101 175.219C75.2542 175.243 75.6889 175.356 76.0879 175.552C76.4868 175.748 76.8417 176.023 77.1311 176.36C77.7246 177.041 78.4156 177.632 79.1818 178.114C79.9751 178.512 81.051 178.456 81.5033 177.696C81.928 176.983 81.637 176.027 81.3799 175.199C80.7256 173.091 80.3596 170.905 80.2916 168.699C80.2175 166.238 80.5661 163.669 81.934 161.749C83.6993 159.271 86.8559 158.33 89.8433 158.398C92.8307 158.467 95.7696 159.385 98.7286 159.966C99.7502 160.167 100.951 160.269 101.634 159.48C102.361 158.642 102.094 157.284 101.785 156.152C100.983 153.213 100.132 150.175 98.2692 147.801C96.2547 145.335 93.3772 143.721 90.216 143.284C87.1812 142.909 84.1004 143.258 81.2271 144.301C76.5456 145.771 72.4263 148.63 69.42 152.496C66.3209 156.607 64.9818 161.773 65.6954 166.865C66.3926 171.3 68.7514 175.307 72.2963 178.078L73.5706 177.094Z" fill="#2F2E41"/>
<path d="M281.279 387.697C276.916 385.803 273.054 382.926 269.999 379.291C266.943 375.655 264.777 371.363 263.672 366.751C262.566 362.139 262.552 357.334 263.63 352.716C264.707 348.097 266.847 343.792 269.881 340.138C266.364 342.697 263.433 345.972 261.283 349.746C259.132 353.52 257.813 357.706 257.41 362.027C257.008 366.348 257.533 370.704 258.95 374.808C260.367 378.911 262.644 382.667 265.629 385.827C268.615 388.986 272.241 391.477 276.266 393.134C280.292 394.79 284.625 395.575 288.978 395.436C293.331 395.297 297.605 394.237 301.515 392.326C305.426 390.415 308.884 387.698 311.659 384.354C307.33 387.507 302.247 389.474 296.917 390.061C291.586 390.647 286.195 389.832 281.279 387.697V387.697Z" fill="#3F3D56"/>
</g>
<defs>
<clipPath id="clip0_1062_1087">
<rect width="564" height="396" fill="white"/>
</clipPath>
</defs>
</svg>
