<svg width="536" height="377" viewBox="0 0 536 377" fill="none" xmlns="http://www.w3.org/2000/svg">
<g clip-path="url(#clip0_1063_1240)">
<path d="M499.737 324.989L500.653 306.037C510.204 301.341 520.857 298.86 531.687 298.81C516.782 310.021 518.645 331.631 508.539 346.706C505.348 351.386 501.054 355.345 495.973 358.29C490.893 361.235 485.158 363.091 479.192 363.72L466.719 370.745C465.007 361.968 465.384 352.953 467.825 344.323C470.265 335.692 474.71 327.651 480.854 320.753C484.342 316.914 488.342 313.496 492.759 310.577C495.746 317.823 499.737 324.989 499.737 324.989Z" fill="#F2F2F2"/>
<path d="M310.591 375.463C304.238 375.047 302.581 376.2 292.969 375.463H275.348L277.64 336.668L305.382 346.895L443.243 350.008L443.162 350.223C443.099 350.389 436.979 366.86 441.763 373.097L441.961 373.355L441.574 373.358L315.108 374.425C313.728 374.437 311.961 375.553 310.591 375.463Z" fill="#F2F2F2"/>
<path d="M317.742 375.97C305.469 375.167 292.762 379.556 282.156 374.601L273.678 375.073L273.653 375.008C273.588 374.828 269.583 345.839 277.679 334.599L278.036 334.104L278.314 336.766L275.645 372.878L281.561 371.062C295.928 377.283 313.015 373.175 329.459 373.117L441.368 372.737C443.713 372.73 445.666 374.203 445.728 376.022L445.734 376.2L324.501 376.191C322.24 376.191 319.987 376.118 317.742 375.97Z" fill="#CCCCCC"/>
<path d="M435.47 357.832L309.534 355.53L309.405 355.485L279.65 345.227L280.213 343.847L309.839 354.062L435.502 356.359L435.47 357.832Z" fill="#E6E6E6"/>
<path d="M434.797 364.036L308.861 361.733L308.733 361.689L278.978 351.43L279.54 350.05L309.167 360.265L434.829 362.562L434.797 364.036Z" fill="#E6E6E6"/>
<path d="M434.126 370.24L308.189 367.937L308.061 367.893L278.306 357.633L278.868 356.253L308.495 366.469L434.158 368.767L434.126 370.24Z" fill="#E6E6E6"/>
<path d="M318.612 350.409C306.935 349.683 295.551 346.728 285.184 341.732L276.455 337.473L276.683 335.367C276.747 335.058 276.932 334.782 277.204 334.591C277.476 334.4 277.815 334.309 278.156 334.334L278.926 334.343L396.373 335.933C404.06 336.021 411.677 337.292 418.907 339.695L444.497 348.242L444.484 348.366C444.269 350.35 442.095 351.883 439.533 351.856L323.844 350.608C322.094 350.589 320.35 350.523 318.612 350.409Z" fill="#E6E6E6"/>
<path d="M444.251 348.698L444.225 348.697L303.384 345.728L303.286 345.687L277.894 334.869L278.151 334.507L278.923 334.516L303.62 345.043L443.155 347.981L444.273 348.006L444.251 348.698Z" fill="#CCCCCC"/>
<path d="M334.76 335.273L332.972 335.25L292.609 334.7L290.696 334.676C299.919 343.708 320.311 345.968 350.2 342.469L334.76 335.273Z" fill="#CCCCCC"/>
<path d="M448.242 119.235L450.705 124.504L446.681 143.217L405.626 137.966L405.954 115.147L406.778 110.15L448.242 119.235Z" fill="#FFB6B6"/>
<path d="M469.453 361.758H460.396L456.085 329.619H469.453V361.758Z" fill="#FFB6B6"/>
<path d="M442.512 372.635C442.513 373.579 442.921 374.484 443.646 375.151C444.372 375.819 445.355 376.194 446.381 376.195H463.613L466.583 370.554L467.737 376.195H474.232L472.406 356.048L469.454 355.889L459.535 355.346L457.936 355.254V360.961L444.183 369.702C443.667 370.03 443.246 370.468 442.955 370.979C442.664 371.49 442.512 372.058 442.512 372.635Z" fill="#2F2E41"/>
<path d="M385.735 324.915H376.678L371.35 277.598L388.368 276.663L385.735 324.915Z" fill="#FFB6B6"/>
<path d="M358.793 335.792C358.794 336.736 359.202 337.641 359.927 338.308C360.653 338.976 361.637 339.351 362.663 339.352H379.894L382.865 333.711L384.018 339.352H390.513L388.687 319.204L386.053 319.062L375.961 318.502L374.217 318.41V324.118L360.464 332.859C359.949 333.187 359.527 333.625 359.236 334.136C358.945 334.647 358.793 335.215 358.793 335.792Z" fill="#2F2E41"/>
<path d="M473.298 334.042H473.263L471.521 281.785C472.648 279.785 473.22 277.559 473.186 275.306C473.152 273.053 472.513 270.843 471.326 268.872L471.076 268.457L471.723 265.7C472.554 262.157 472.172 258.464 470.632 255.129L469.007 206.382C474.813 171.769 447.145 149.195 447.145 149.195L449.687 131.053L404.936 131.989L405.697 149.195L396.799 177.32C392.116 219.292 360.599 245.673 365.39 285.809C365.399 285.925 365.381 286.04 365.335 286.148C364.849 287.508 364.678 288.946 364.833 290.37C364.988 291.795 365.465 293.173 366.235 294.417C366.434 294.735 366.571 295.082 366.64 295.443C367.627 302.479 367.755 293.579 369.063 300.553L368.809 300.671C367.892 300.962 367.499 302.13 367.931 303.28C368.362 304.429 369.454 305.125 370.371 304.834L394.294 305.07C395.21 304.779 395.603 303.611 395.172 302.461C394.74 301.312 393.648 300.616 392.732 300.907L391.243 301.599L393.733 294.105L394.606 293.355C395.024 292.996 395.349 292.554 395.555 292.063C395.762 291.573 395.845 291.045 395.799 290.521C395.752 289.996 395.577 289.488 395.287 289.034C394.997 288.581 394.6 288.193 394.124 287.901L396.604 275.722L396.252 266.512L396.978 256.062L428.367 214.219L441.067 272.017L454.039 334.624C453.737 334.875 453.509 335.194 453.379 335.549C453.249 335.904 453.22 336.284 453.295 336.653C453.415 337.167 453.725 337.628 454.173 337.955C454.621 338.282 455.179 338.456 455.751 338.447H473.361C473.73 338.446 474.094 338.368 474.425 338.216C474.756 338.065 475.044 337.846 475.268 337.576C475.491 337.306 475.644 336.991 475.714 336.658C475.784 336.324 475.769 335.981 475.671 335.653C475.522 335.182 475.21 334.769 474.781 334.478C474.352 334.187 473.831 334.034 473.298 334.042Z" fill="#2F2E41"/>
<path d="M457.637 30.3148C457.639 33.6512 456.75 36.9369 455.048 39.8835C453.347 42.8301 450.886 45.3474 447.88 47.2145C444.874 49.0817 441.416 50.2415 437.81 50.5922C434.203 50.9429 430.558 50.4738 427.194 49.226C423.831 47.9782 420.852 45.9898 418.518 43.4356C416.185 40.8813 414.569 37.8392 413.812 34.5762C413.055 31.3132 413.181 27.9292 414.177 24.7213C415.174 21.5133 417.011 18.5794 419.528 16.1772L419.634 16.0795C419.812 15.9082 419.989 15.737 420.175 15.5739C420.176 15.5739 420.177 15.5737 420.178 15.5733C420.18 15.5729 420.181 15.5723 420.181 15.5715C420.182 15.5707 420.183 15.5698 420.183 15.5688C420.184 15.5678 420.184 15.5668 420.184 15.5657C420.438 15.395 420.673 15.2011 420.884 14.9869C423.875 11.1419 427.266 7.91777 435.481 9.93197C447.307 12.8318 457.637 19.0553 457.637 30.3148Z" fill="#2F2E41"/>
<path d="M335.927 21.5891C335.877 22.6796 336.087 23.767 336.543 24.7747C336.999 25.7824 337.69 26.6858 338.567 27.4214C339.443 28.1569 340.484 28.7067 341.617 29.032C342.75 29.3573 343.946 29.4502 345.122 29.3042L402.262 72.445L410.99 58.3325L352.078 20.3641C351.681 18.5632 350.579 16.9591 348.982 15.8556C347.384 14.7522 345.402 14.2261 343.411 14.3771C341.421 14.5281 339.559 15.3457 338.18 16.6749C336.8 18.0041 335.999 19.7526 335.927 21.5892V21.5891Z" fill="#FFB6B6"/>
<path d="M426.39 85.1677C426.39 85.1677 426.372 83.614 417.288 83.6737C406.013 83.7479 374.96 68.8561 377.676 54.8311C376.386 55.3672 374.94 55.4934 373.563 55.1897C372.187 54.886 370.96 54.1698 370.075 53.1539L385.193 39.7639C389.936 40.0587 389.985 42.9789 389.579 44.6557L401.728 49.097L433.372 65.8217L427.785 82.6213L426.39 85.1677Z" fill="#00ABB6"/>
<path d="M430.023 52.1225C440.284 52.1225 448.602 44.4703 448.602 35.0307C448.602 25.5911 440.284 17.9388 430.023 17.9388C419.762 17.9388 411.443 25.5911 411.443 35.0307C411.443 44.4703 419.762 52.1225 430.023 52.1225Z" fill="#FFB7B7"/>
<path d="M404.486 120.044C403.46 121.304 402.936 122.85 403.002 124.423C403.069 125.997 403.721 127.501 404.85 128.684C404.859 129.186 404.941 129.671 405.713 131.467C405.814 131.641 405.932 131.806 406.067 131.96C406.092 131.998 406.119 132.034 406.149 132.069C406.962 133.036 408.093 133.737 409.373 134.066L443.383 142.799L447.879 143.952L448.669 144.152L449.105 138.503C450.117 137.732 450.794 136.654 451.016 135.463C451.238 134.272 450.988 133.047 450.314 132.01L449.687 131.058L453.338 122.024L453.693 121.13L463.004 98.0747L463.013 96.5371L463.031 94.9494L463.122 83.8686C463.126 80.3764 462.251 76.9306 460.564 73.8018C458.878 70.673 456.426 67.9462 453.402 65.8354C450.647 63.899 447.472 62.531 444.091 61.8243L444.019 61.8159L440.34 57.2616L425.415 58.6321L424.18 60.9635L422.681 63.7713L411.862 69.696L408.165 77.6013L405.667 82.9494C401.798 85.5066 399.49 88.7907 398.827 92.7015C397.41 101.008 403.733 109.323 404.486 110.275L404.677 119.81L404.486 120.044Z" fill="#00ABB6"/>
<path d="M449.466 39.5115C449.298 39.4871 449.129 39.4544 448.961 39.4299C446.063 38.9571 443.165 38.4924 440.276 38.0113L440.01 31.9862L436.509 37.3835C428.524 39.8213 421.053 38.4434 414.025 35.4023C411.706 34.3899 409.457 33.2491 407.289 31.9862C406.575 21.7964 411.053 15.273 419.386 15.9572C419.691 15.9822 419.909 15.6963 420.175 15.5739C420.176 15.5739 420.178 15.5737 420.179 15.5733C420.18 15.5729 420.181 15.5723 420.181 15.5715C420.182 15.5708 420.183 15.5699 420.183 15.5689C420.184 15.5679 420.184 15.5668 420.184 15.5657C420.636 15.3701 421.097 15.1826 421.558 15.0114C425.166 13.7143 429.1 13.3858 432.903 14.0641C436.706 14.7424 440.221 16.3997 443.041 18.8433C448.713 23.825 451.265 32.0514 449.466 39.5115Z" fill="#2F2E41"/>
<path d="M448.961 39.4299C448.961 39.4299 443.458 20.531 419.865 16.169C419.839 16.161 419.75 16.1283 419.635 16.0795C419.564 16.0387 419.475 15.9979 419.387 15.9572C419.653 15.8185 419.91 15.6963 420.175 15.5739C420.177 15.5739 420.178 15.5737 420.179 15.5733C420.18 15.5729 420.181 15.5723 420.182 15.5715C420.183 15.5708 420.183 15.5699 420.184 15.5689C420.184 15.5679 420.184 15.5668 420.184 15.5657C420.415 15.3701 420.645 15.1744 420.885 14.9869L421.558 15.0114C421.558 15.0114 445.23 11.5626 448.961 39.4299Z" fill="#FD6584"/>
<path d="M458.037 158.564C457.6 158.908 457.069 159.134 456.501 159.219C455.934 159.303 455.352 159.243 454.82 159.043C453.761 158.63 452.82 157.997 452.071 157.194C449.015 154.244 446.831 150.624 445.729 146.678L446.748 145.01C446.348 142.953 446.724 140.832 447.815 138.999C448.905 137.166 450.645 135.731 452.744 134.933C453.938 134.467 455.262 134.361 456.526 134.63C457.153 134.774 457.726 135.07 458.185 135.488C458.644 135.906 458.971 136.43 459.133 137.006C459.525 138.79 457.909 140.401 456.274 141.425C453.423 143.205 450.128 144.29 446.697 144.577C450.893 146.753 454.521 149.748 457.325 153.352C457.974 154.104 458.452 154.967 458.731 155.892C458.866 156.355 458.873 156.842 458.751 157.309C458.63 157.775 458.385 158.207 458.037 158.564Z" fill="#2F2E41"/>
<path d="M223.192 376.801H535.001C535.266 376.801 535.52 376.705 535.707 376.532C535.895 376.36 536 376.126 536 375.883C536 375.639 535.895 375.405 535.707 375.233C535.52 375.061 535.266 374.964 535.001 374.964H223.192C222.927 374.964 222.673 375.061 222.486 375.233C222.299 375.405 222.193 375.639 222.193 375.883C222.193 376.126 222.299 376.36 222.486 376.532C222.673 376.705 222.927 376.801 223.192 376.801Z" fill="#CCCCCC"/>
<path d="M306.002 140.571V141.051C304.879 139.84 303.733 138.64 302.599 137.44C302.122 136.939 301.646 136.438 301.169 135.937C299.15 133.828 297.119 131.727 295.077 129.633C293.023 127.545 290.97 125.458 288.893 123.381C288.394 122.88 287.895 122.379 287.385 121.878C286.976 121.457 286.532 121.066 286.057 120.709C285.578 120.342 285.027 120.063 284.435 119.885C283.753 119.711 283.033 119.704 282.347 119.864C281.564 120.031 280.816 120.292 280.056 120.511C279.273 120.751 278.501 120.981 277.718 121.21C276.153 121.68 274.598 122.15 273.033 122.619C273.014 122.626 272.994 122.63 272.973 122.63C272.953 122.63 272.933 122.626 272.914 122.618C272.895 122.611 272.878 122.601 272.864 122.587C272.85 122.574 272.838 122.558 272.831 122.541L272.828 122.536C272.82 122.516 272.816 122.495 272.817 122.473C272.818 122.452 272.824 122.431 272.835 122.412C272.845 122.393 272.861 122.377 272.879 122.364C272.898 122.351 272.919 122.342 272.942 122.337C273.328 122.223 273.725 122.108 274.122 121.993C275.699 121.513 277.264 121.043 278.842 120.574C279.624 120.333 280.407 120.104 281.19 119.874C281.916 119.621 282.683 119.48 283.459 119.457C284.726 119.541 285.915 120.054 286.795 120.897C287.282 121.315 287.725 121.753 288.167 122.202C288.689 122.724 289.211 123.245 289.733 123.767C291.832 125.876 293.916 127.991 295.984 130.113C298.06 132.242 300.118 134.375 302.156 136.511C302.304 136.667 302.451 136.824 302.599 136.981C303.744 138.17 304.868 139.371 306.002 140.571Z" fill="white"/>
<path d="M285.881 122.632C285.453 122.124 284.881 121.734 284.229 121.503L283.584 121.524C288.648 128.772 295.281 134.982 303.071 139.766C297.341 134.055 291.611 128.344 285.881 122.632Z" fill="white"/>
<path d="M391.556 197.962L365.854 71.3616C365.414 69.2747 364.217 67.3871 362.458 66.0083C360.699 64.6296 358.483 63.8415 356.173 63.7733C355.965 63.7691 355.758 63.7691 355.55 63.7733L338.041 64.3511L336.157 64.4148L327.419 64.7038L325.534 64.7633L319.914 64.9502L206.576 68.6934C206.405 68.7018 206.229 68.7018 206.059 68.6976L180.661 68.209L171.263 68.0305L170.963 68.0263L164.026 67.8903L103.579 66.7347L87.5527 66.4245L79.6505 66.2758L77.7569 66.2375L68.7463 66.0676L66.8573 66.0293L57.6388 65.8551L55.7498 65.8169L45.6214 65.6214L44.0327 65.5917L34.9989 65.4175L33.5718 65.392H33.364C30.9657 65.401 28.6481 66.1897 26.8209 67.6188C24.9936 69.0478 23.7744 71.0252 23.3788 73.2012L0.133941 204.573C-0.102109 205.904 -0.0208395 207.266 0.372101 208.565C0.765041 209.864 1.46024 211.069 2.40959 212.096C3.35895 213.123 4.53972 213.948 5.87013 214.514C7.20054 215.08 8.64877 215.373 10.1145 215.373H143.607C145.572 215.378 147.484 215.958 149.066 217.03L151.597 218.755C153.342 219.936 155.449 220.576 157.615 220.582C183.398 214.322 210.504 214.322 236.287 220.582C237.616 220.585 238.933 220.346 240.161 219.877C241.389 219.409 242.503 218.722 243.441 217.854C245.043 216.381 247.182 215.504 249.445 215.394L382.143 208.962C383.582 208.893 384.988 208.541 386.268 207.931C387.547 207.322 388.67 206.467 389.561 205.426C390.453 204.384 391.092 203.179 391.436 201.892C391.78 200.605 391.82 199.265 391.556 197.962V197.962Z" fill="#CCCCCC"/>
<path d="M355.19 178.22C355.019 182.51 353.004 186.562 349.587 189.486C346.17 192.41 341.631 193.966 336.967 193.812C329.262 193.561 320.066 193.436 310.086 193.628C277.494 194.269 236.547 198.395 211.917 213.235C208.821 215.105 205.163 216.028 201.464 215.873C201.192 215.859 200.928 215.844 200.655 215.822C196.82 215.499 193.206 214.026 190.371 211.629C176.802 200.208 145.684 186.377 74.4519 185.404C74.1555 185.404 73.8672 185.389 73.5788 185.375C71.2717 185.241 69.0158 184.691 66.9401 183.755C64.8644 182.819 63.0096 181.515 61.4816 179.919C59.9537 178.324 58.7826 176.466 58.0354 174.454C57.2881 172.442 56.9793 170.313 57.1266 168.191L64.1272 65.9808L65.1765 50.6614L67.0188 23.8617C67.2045 21.1628 68.5002 18.6302 70.6426 16.7784C72.7849 14.9266 75.6133 13.8946 78.5529 13.892H78.625L121.061 14.1204C138.939 14.8646 153.747 16.9598 165.484 20.4058C169.493 21.5496 173.394 22.9937 177.146 24.7239C182.272 27.0099 186.877 30.1734 190.715 34.0452C193.106 36.5186 196.367 38.1386 199.926 38.6211C200.478 38.697 201.035 38.7437 201.592 38.7611C204.875 38.8861 208.114 38.0333 210.828 36.3295C238.55 19.2416 295.044 17.9447 326.242 18.6816C330.605 18.7752 334.774 20.3596 337.937 23.1262C341.1 25.8927 343.03 29.6433 343.351 33.6473L344.617 48.893L345.874 64.0945L353.131 151.951L355.149 176.392C355.199 177 355.212 177.61 355.19 178.22Z" fill="#F2F2F2"/>
<path d="M85.0097 49.8581C110.583 42.3522 139.113 44.3393 163.34 54.9136C170.253 57.9151 176.781 61.6141 182.805 65.9427C184.509 67.1731 186.934 64.9723 185.212 63.7287C162.96 47.851 135.001 40.3084 106.952 42.6163C99.1918 43.2551 91.5309 44.671 84.1049 46.8388C82.0261 47.4489 82.9146 50.473 85.0097 49.8581H85.0097Z" fill="#3F3D56"/>
<path d="M225.73 67.1573C249.506 55.6606 277.978 53.1535 303.829 59.6795C311.199 61.5356 318.321 64.1408 325.065 67.4469C326.996 68.3952 328.718 65.6933 326.782 64.7433C302.144 52.649 272.569 49.8649 245.663 56.6068C238.158 58.4909 230.898 61.122 224.012 64.4536C222.072 65.3915 223.791 68.0949 225.73 67.1573Z" fill="#3F3D56"/>
<path d="M225.73 88.0313C249.506 76.5346 277.978 74.0275 303.829 80.5536C311.199 82.4096 318.321 85.0148 325.065 88.321C326.996 89.2693 328.718 86.5674 326.782 85.6174C302.144 73.523 272.569 70.7389 245.663 77.4808C238.158 79.3649 230.898 81.9961 224.012 85.3276C222.072 86.2655 223.791 88.9689 225.73 88.0313L225.73 88.0313Z" fill="#3F3D56"/>
<path d="M327.615 107.786C327.633 107.517 327.563 107.249 327.413 107.018C327.264 106.786 327.042 106.602 326.777 106.488C307.039 96.9799 284.66 93.1237 262.52 95.4153C262.381 95.4255 262.253 95.4459 262.103 95.4561H262.098C261.962 95.4674 261.826 95.4861 261.692 95.5124C248.524 96.9064 235.749 100.529 224.013 106.196C223.757 106.337 223.545 106.536 223.398 106.774C223.251 107.012 223.174 107.282 223.174 107.556V146.496C223.178 146.735 223.241 146.971 223.359 147.185C223.477 147.398 223.646 147.585 223.854 147.729C224.061 147.874 224.302 147.974 224.558 148.02C224.813 148.067 225.077 148.059 225.329 147.998C225.851 147.86 226.373 147.727 226.906 147.599C238.771 144.645 250.952 142.892 263.231 142.372C263.492 142.362 263.753 142.352 264.025 142.342C274.026 141.946 284.046 142.278 293.99 143.333C294.198 143.344 294.406 143.364 294.612 143.394C295.123 143.445 295.645 143.501 296.156 143.563C296.362 143.583 296.556 143.604 296.745 143.634C298.733 143.864 300.705 144.125 302.682 144.406C305.537 144.825 308.392 145.291 311.247 145.806C311.425 145.836 311.608 145.877 311.791 145.908C316.373 146.746 320.934 147.717 325.471 148.79C325.724 148.85 325.988 148.856 326.244 148.809C326.5 148.761 326.741 148.661 326.948 148.515C327.156 148.369 327.324 148.182 327.442 147.968C327.559 147.754 327.622 147.517 327.626 147.277V107.847C327.628 107.826 327.624 107.805 327.615 107.786Z" fill="#3F3D56"/>
<path d="M265.188 97.5386C263.941 96.9768 262.512 96.8613 261.178 97.2145C260.588 97.4178 260.049 97.7268 259.59 98.1235C259.132 98.5202 258.763 98.9968 258.507 99.5255C258.044 100.539 257.748 101.611 257.627 102.704C257.557 103.135 257.553 103.678 258.023 103.878C258.193 103.935 258.378 103.948 258.556 103.916C258.734 103.884 258.899 103.807 259.033 103.694C259.276 103.474 259.476 103.218 259.624 102.935C260.441 101.767 261.564 100.807 262.89 100.143C264.217 99.4801 265.703 99.1349 267.213 99.1398L268.469 99.6006C267.481 98.7814 266.377 98.088 265.188 97.5386Z" fill="#FF6582"/>
<path d="M278.789 106.514C277.813 105.193 276.658 103.783 274.848 103.352C272.753 102.852 270.6 103.844 268.774 104.823C263.344 107.733 258.086 110.905 253.021 114.327L253.027 114.379L264.782 113.715C267.613 113.555 270.541 113.373 273.043 112.276C273.941 111.758 274.945 111.414 275.993 111.266C276.643 111.298 277.28 111.449 277.867 111.709C278.453 111.969 278.978 112.333 279.411 112.78C284.828 117.504 286.396 124.728 292.474 128.878C288.606 121.081 284.028 113.6 278.789 106.514Z" fill="white"/>
<path d="M264.027 142.341C263.755 142.351 263.494 142.362 263.233 142.372C261.339 141.746 259.399 141.193 257.436 140.713C256.165 140.4 254.872 140.118 253.578 139.878C252.115 139.586 250.64 139.356 249.165 139.158C246.357 138.782 243.527 138.562 240.69 138.5C240.669 138.502 240.647 138.5 240.626 138.494C240.606 138.488 240.587 138.478 240.571 138.465C240.555 138.451 240.542 138.435 240.533 138.417C240.524 138.399 240.52 138.379 240.52 138.359C240.52 138.339 240.524 138.32 240.533 138.302C240.542 138.283 240.555 138.267 240.571 138.254C240.587 138.241 240.606 138.23 240.626 138.224C240.647 138.218 240.669 138.216 240.69 138.218C241.053 138.218 241.416 138.229 241.768 138.25C244.611 138.346 247.445 138.601 250.254 139.012C251.718 139.231 253.181 139.492 254.634 139.784C255.949 140.055 257.265 140.358 258.559 140.692C260.408 141.172 262.231 141.722 264.027 142.341Z" fill="white"/>
<path d="M296.747 143.635C296.554 143.604 296.361 143.583 296.157 143.562C295.374 142.967 294.58 142.404 293.752 141.85C292.719 141.162 291.653 140.514 290.564 139.909C288.152 138.562 285.633 137.383 283.03 136.381C278.915 134.805 274.655 133.568 270.301 132.687C265.334 131.686 260.307 130.961 255.246 130.516C250.186 130.036 245.103 129.743 240.02 129.451C239.805 129.441 239.794 129.149 240.02 129.159C240.656 129.201 241.291 129.232 241.938 129.274C247.077 129.566 252.217 129.9 257.322 130.432C262.384 130.932 267.406 131.733 272.354 132.833C276.579 133.791 280.703 135.093 284.675 136.726C286.96 137.67 289.174 138.755 291.301 139.972C292.651 140.754 293.956 141.589 295.204 142.477C295.726 142.852 296.248 143.228 296.747 143.635Z" fill="white"/>
<path d="M294.614 143.395C294.408 143.364 294.199 143.344 293.99 143.332C293.752 143.155 293.502 142.988 293.253 142.821C291.506 141.671 289.684 140.622 287.796 139.679C286.081 138.822 284.32 138.045 282.52 137.352C278.406 135.771 274.146 134.534 269.791 133.657C264.824 132.656 259.797 131.931 254.736 131.487C249.676 131.006 244.593 130.714 239.51 130.422C239.295 130.401 239.295 130.119 239.51 130.13C240.157 130.171 240.792 130.203 241.428 130.244C246.567 130.537 251.706 130.871 256.812 131.403C261.874 131.902 266.895 132.704 271.844 133.804C276.07 134.76 280.193 136.062 284.165 137.697C285.663 138.323 287.126 139.001 288.556 139.742C290.676 140.813 292.701 142.034 294.614 143.395Z" fill="white"/>
<path d="M311.791 145.91C311.61 145.879 311.428 145.837 311.247 145.806C311.043 145.608 310.85 145.399 310.657 145.19C309.681 144.157 308.717 143.113 307.764 142.059C304.009 137.947 300.446 133.709 297.088 129.389C294.206 125.694 291.472 121.926 288.885 118.085C287.649 116.269 286.457 114.432 285.289 112.575C284.381 111.134 283.496 109.691 282.634 108.243C282.384 107.826 282.146 107.408 281.908 106.991C281.352 106.01 280.796 105.018 280.206 104.048C279.565 102.858 278.623 101.828 277.46 101.042C276.879 100.684 276.207 100.471 275.509 100.426C274.525 100.429 273.558 100.659 272.695 101.094C266.348 103.813 260.36 107.192 254.849 111.166C249.467 115.017 244.6 119.442 240.35 124.347C240.214 124.494 239.919 124.358 240.044 124.201C240.554 123.617 241.076 123.032 241.598 122.458C245.682 118.014 250.282 113.993 255.314 110.466C255.326 110.456 255.349 110.445 255.36 110.435C255.802 110.111 256.245 109.798 256.699 109.496C259.508 107.592 262.433 105.836 265.457 104.235C267 103.411 268.577 102.628 270.188 101.887C270.585 101.699 270.994 101.511 271.402 101.334C271.811 101.146 272.219 100.969 272.627 100.791C273.436 100.412 274.32 100.188 275.225 100.134C278.379 100.092 280.002 103.014 281.125 104.987C281.477 105.603 281.84 106.218 282.192 106.834C283.553 109.162 284.971 111.479 286.446 113.764C287.342 115.184 288.272 116.593 289.214 117.991C290.564 119.985 291.948 121.957 293.389 123.92C293.389 123.921 293.389 123.922 293.39 123.924C293.39 123.925 293.391 123.926 293.392 123.927C293.393 123.928 293.395 123.929 293.396 123.929C293.397 123.93 293.399 123.93 293.4 123.93H293.401C295.068 126.247 296.804 128.522 298.597 130.787C301.671 134.659 304.893 138.445 308.263 142.143C309.42 143.416 310.596 144.672 311.791 145.91Z" fill="white"/>
<path d="M271.315 99.8155L271.001 99.9417C270.282 98.8251 269.275 97.889 268.068 97.2169C266.861 96.5448 265.492 96.1573 264.084 96.089C259.439 95.7855 255.359 98.6331 254.988 102.436C254.837 104.002 255.33 105.564 256.369 106.812L256.077 106.97C254.995 105.67 254.482 104.045 254.639 102.414C255.025 98.453 259.274 95.4875 264.111 95.8036C265.578 95.8747 267.004 96.2782 268.26 96.9781C269.517 97.678 270.566 98.6527 271.315 99.8155Z" fill="#FF6582"/>
<path d="M248.363 107.51C247.144 107.023 245.816 106.809 244.489 106.887C243.163 106.964 241.875 107.331 240.733 107.957C244.902 108.546 249.035 109.335 253.114 110.323C251.425 109.513 250.104 108.243 248.363 107.51Z" fill="white"/>
<path d="M240.709 107.954L240.251 108.258C240.406 108.152 240.567 108.052 240.733 107.957L240.709 107.954Z" fill="white"/>
<path d="M254.534 109.726C254.351 109.559 254.17 109.392 253.985 109.225C252.573 107.811 250.873 106.666 248.98 105.855C248.017 105.482 246.984 105.286 245.938 105.278C244.858 105.301 243.79 105.492 242.78 105.842C242.304 105.998 241.839 106.174 241.381 106.362C240.858 106.578 240.343 106.808 239.832 107.04C238.871 107.475 237.923 107.929 236.988 108.403C235.126 109.345 233.323 110.359 231.578 111.445C230.674 112.008 229.788 112.589 228.921 113.189C228.114 113.747 227.324 114.319 226.55 114.906C226.384 115.031 226.137 114.829 226.303 114.704C226.507 114.549 226.713 114.394 226.919 114.241C227.502 113.81 228.094 113.387 228.696 112.972C229.793 112.214 230.918 111.485 232.071 110.786C233.865 109.698 235.721 108.684 237.638 107.743C238.596 107.274 239.568 106.824 240.552 106.394C240.849 106.264 241.15 106.137 241.454 106.017C242.149 105.73 242.866 105.491 243.599 105.302C244.651 105.025 245.75 104.936 246.838 105.041C247.88 105.164 248.891 105.45 249.827 105.888C251.682 106.844 253.355 108.072 254.782 109.522C254.931 109.66 254.685 109.863 254.534 109.726Z" fill="white"/>
<path d="M85.0097 70.7321C110.583 63.2262 139.113 65.2134 163.34 75.7876C170.253 78.7891 176.781 82.4882 182.805 86.8167C184.509 88.0471 186.934 85.8463 185.212 84.6027C162.96 68.725 135.001 61.1824 106.952 63.4903C99.1918 64.1291 91.5309 65.545 84.1049 67.7129C82.0261 68.323 82.9146 71.3471 85.0097 70.7321L85.0097 70.7321Z" fill="#3F3D56"/>
<path d="M85.0097 91.6061C110.583 84.1003 139.113 86.0874 163.34 96.6616C170.253 99.6631 176.781 103.362 182.805 107.691C184.509 108.921 186.934 106.72 185.212 105.477C162.96 89.599 135.001 82.0564 106.952 84.3643C99.1918 85.0031 91.5309 86.419 84.1049 88.5869C82.0261 89.197 82.9146 92.2211 85.0097 91.6061L85.0097 91.6061Z" fill="#3F3D56"/>
<path d="M85.0097 112.48C110.583 104.974 139.113 106.961 163.34 117.536C170.253 120.537 176.781 124.236 182.805 128.565C184.509 129.795 186.934 127.594 185.212 126.351C162.96 110.473 135.001 102.93 106.952 105.238C99.1918 105.877 91.5309 107.293 84.1049 109.461C82.0261 110.071 82.9146 113.095 85.0097 112.48L85.0097 112.48Z" fill="#3F3D56"/>
<path d="M85.0097 133.354C110.583 125.848 139.113 127.835 163.34 138.41C170.253 141.411 176.781 145.11 182.805 149.439C184.509 150.669 186.934 148.468 185.212 147.225C162.96 131.347 135.001 123.804 106.952 126.112C99.1918 126.751 91.5309 128.167 84.1049 130.335C82.0261 130.945 82.9146 133.969 85.0097 133.354L85.0097 133.354Z" fill="#3F3D56"/>
<path d="M85.0097 154.228C110.583 146.722 139.113 148.709 163.34 159.284C170.253 162.285 176.781 165.984 182.805 170.313C184.509 171.543 186.934 169.342 185.212 168.099C162.96 152.221 135.001 144.679 106.952 146.986C99.1918 147.625 91.5309 149.041 84.1049 151.209C82.0261 151.819 82.9146 154.843 85.0097 154.228H85.0097Z" fill="#3F3D56"/>
<path d="M177.147 24.7238V74.7789C177.147 75.7736 175.256 76.6063 172.709 76.8347C172.688 76.8335 172.666 76.836 172.645 76.8421C172.221 76.8716 171.772 76.8937 171.316 76.8937C169.911 76.9174 168.514 76.7077 167.19 76.2747C167.07 76.2305 166.95 76.1789 166.83 76.1347C166.718 76.0758 166.598 76.0242 166.486 75.9652C165.853 75.6189 165.484 75.2136 165.484 74.7789V20.4058C169.494 21.5495 173.394 22.9936 177.147 24.7238Z" fill="#00ABB6"/>
<path d="M201.591 36.3334H199.925V214.827H201.591V36.3334Z" fill="#E6E6E6"/>
<path d="M382.792 158.525C383.973 158.425 385.117 158.089 386.142 157.539C387.166 156.989 388.048 156.239 388.724 155.342C389.399 154.444 389.853 153.422 390.053 152.346C390.252 151.27 390.193 150.167 389.879 149.114L424.464 134.263L445.285 103.278L428.919 97.1995L414.873 122.168L379.321 143.962C377.434 144.564 375.853 145.782 374.876 147.386C373.9 148.989 373.597 150.866 374.025 152.661C374.453 154.456 375.582 156.045 377.197 157.125C378.813 158.206 380.804 158.704 382.792 158.525V158.525Z" fill="#FFB6B6"/>
<path d="M458.129 73.5959C458.129 73.5959 462.204 74.8199 457.731 82.0929C454.15 87.9155 436.703 121.454 429.582 128.04C430.332 129.144 430.66 130.446 430.516 131.742C430.372 133.037 429.764 134.251 428.787 135.193L412.349 123.193C412.035 118.828 415.175 118.395 417.035 118.542L420.817 106.212L434.007 75.7952L455.2 72.6631L458.129 73.5959Z" fill="#00ABB6"/>
<path d="M458.484 16.5854C459.261 13.6946 464.9 11.56 455.241 7.52402C452.897 6.54452 452.994 3.17131 451.012 1.66067C449.029 0.150027 446.125 -0.550326 443.82 0.505555C441.763 1.44845 440.603 3.58226 440.356 5.68505C440.237 7.80144 440.503 9.92121 441.142 11.9573L440.954 12.209C444.78 14.9023 448.606 17.5955 452.432 20.2887C453.838 21.2785 455.676 22.3148 457.252 21.5722C459.035 20.7315 458.003 18.3752 458.484 16.5854Z" fill="#2F2E41"/>
</g>
<defs>
<clipPath id="clip0_1063_1240">
<rect width="536" height="377" fill="white"/>
</clipPath>
</defs>
</svg>
