<svg width="24" height="24" viewBox="0 0 24 24" fill="none" xmlns="http://www.w3.org/2000/svg">
<path d="M16.5 11.9999C16.5 13.1934 16.0259 14.338 15.182 15.1819C14.3381 16.0258 13.1935 16.4999 12 16.4999C10.8065 16.4999 9.66194 16.0258 8.81802 15.1819C7.97411 14.338 7.5 13.1934 7.5 11.9999C7.5 10.8065 7.97411 9.66187 8.81802 8.81796C9.66194 7.97404 10.8065 7.49994 12 7.49994C13.1935 7.49994 14.3381 7.97404 15.182 8.81796C16.0259 9.66187 16.5 10.8065 16.5 11.9999ZM16.5 11.9999C16.5 13.6569 17.507 14.9999 18.75 14.9999C19.993 14.9999 21 13.6569 21 11.9999C21 9.91774 20.278 7.89997 18.957 6.29042C17.6361 4.68087 15.7979 3.57913 13.7557 3.17293C11.7136 2.76673 9.5937 3.0812 7.75737 4.06276C5.92104 5.04431 4.48187 6.63222 3.68506 8.55592C2.88825 10.4796 2.78311 12.6201 3.38756 14.6126C3.992 16.6052 5.26863 18.3265 6.99992 19.4833C8.73121 20.6401 10.81 21.1608 12.8822 20.9567C14.9544 20.7526 16.8917 19.8363 18.364 18.3639M16.5 11.9999V8.24994" stroke="#64748B" stroke-width="1.5" stroke-linecap="round"/>
</svg>
