<svg width="25" height="25" viewBox="0 0 25 25" fill="none" xmlns="http://www.w3.org/2000/svg">
<path d="M10.1563 22.6562V17.1796C10.1563 16.7968 10.5469 16.4062 10.9375 16.4062H14.0625C14.4531 16.4062 14.8438 16.7968 14.8438 17.1874V22.6562C14.8438 22.8634 14.9261 23.0621 15.0726 23.2086C15.2191 23.3551 15.4178 23.4374 15.625 23.4374H21.875C22.0822 23.4374 22.2809 23.3551 22.4274 23.2086C22.5739 23.0621 22.6563 22.8634 22.6563 22.6562V11.7187C22.6564 11.616 22.6364 11.5143 22.5972 11.4194C22.5581 11.3245 22.5006 11.2382 22.4281 11.1656L20.3125 9.05149V3.90618C20.3125 3.69898 20.2302 3.50027 20.0837 3.35375C19.9372 3.20724 19.7385 3.12493 19.5313 3.12493H17.9688C17.7616 3.12493 17.5628 3.20724 17.4163 3.35375C17.2698 3.50027 17.1875 3.69898 17.1875 3.90618V5.92649L13.0531 1.79056C12.9806 1.7178 12.8943 1.66008 12.7994 1.62069C12.7045 1.58131 12.6028 1.56104 12.5 1.56104C12.3972 1.56104 12.2955 1.58131 12.2006 1.62069C12.1057 1.66008 12.0194 1.7178 11.9469 1.79056L2.57188 11.1656C2.49937 11.2382 2.44191 11.3245 2.40276 11.4194C2.36362 11.5143 2.34357 11.616 2.34375 11.7187V22.6562C2.34375 22.8634 2.42606 23.0621 2.57257 23.2086C2.71909 23.3551 2.9178 23.4374 3.125 23.4374H9.375C9.5822 23.4374 9.78092 23.3551 9.92743 23.2086C10.0739 23.0621 10.1563 22.8634 10.1563 22.6562Z" fill="#5252E0"/>
</svg>
