<svg width="26" height="25" viewBox="0 0 26 25" fill="none" xmlns="http://www.w3.org/2000/svg">
<path d="M13 4.39453C15.1631 4.39453 17.1992 5.23926 18.7324 6.76758C20.2607 8.30078 21.1055 10.3369 21.1055 12.5C21.1055 14.6631 20.2607 16.6992 18.7324 18.2324C17.1992 19.7607 15.1631 20.6055 13 20.6055C10.8369 20.6055 8.80078 19.7607 7.26758 18.2324C5.73926 16.6992 4.89453 14.6631 4.89453 12.5C4.89453 10.3369 5.73926 8.30078 7.26758 6.76758C8.80078 5.23926 10.8369 4.39453 13 4.39453ZM13 2.34375C7.38965 2.34375 2.84375 6.88965 2.84375 12.5C2.84375 18.1104 7.38965 22.6562 13 22.6562C18.6104 22.6562 23.1562 18.1104 23.1562 12.5C23.1562 6.88965 18.6104 2.34375 13 2.34375Z" fill="#636363"/>
<path d="M14.0254 17.5781H11.9746V11.4746H14.0254V17.5781ZM14.0254 9.47266H11.9746V7.42188H14.0254V9.47266Z" fill="#636363"/>
</svg>
