<svg width="26" height="25" viewBox="0 0 26 25" fill="none" xmlns="http://www.w3.org/2000/svg">
<path fill-rule="evenodd" clip-rule="evenodd" d="M10.75 4.99998C9.42392 4.99998 8.15215 5.52677 7.21447 6.46445C6.27678 7.40213 5.75 8.6739 5.75 9.99998C5.75 11.3261 6.27678 12.5978 7.21447 13.5355C8.15215 14.4732 9.42392 15 10.75 15C12.0761 15 13.3479 14.4732 14.2855 13.5355C15.2232 12.5978 15.75 11.3261 15.75 9.99998C15.75 8.6739 15.2232 7.40213 14.2855 6.46445C13.3479 5.52677 12.0761 4.99998 10.75 4.99998ZM3.25 9.99998C3.24985 8.81961 3.5283 7.65587 4.06271 6.60341C4.59713 5.55095 5.3724 4.63948 6.3255 3.94314C7.27859 3.2468 8.38258 2.78525 9.54768 2.59602C10.7128 2.4068 11.9061 2.49525 13.0306 2.85417C14.1551 3.21309 15.1789 3.83236 16.019 4.6616C16.859 5.49084 17.4914 6.50665 17.8648 7.6264C18.2382 8.74615 18.3421 9.93822 18.1679 11.1057C17.9937 12.2731 17.5465 13.383 16.8625 14.345L22.8838 20.3662C23.1115 20.602 23.2374 20.9177 23.2346 21.2455C23.2317 21.5732 23.1003 21.8867 22.8685 22.1185C22.6368 22.3503 22.3232 22.4817 21.9955 22.4846C21.6678 22.4874 21.352 22.3614 21.1163 22.1337L15.0963 16.1137C13.9742 16.9116 12.6542 17.3852 11.2808 17.4826C9.90751 17.5801 8.53384 17.2976 7.31038 16.6662C6.08691 16.0348 5.06086 15.0788 4.34465 13.9029C3.62845 12.7271 3.24973 11.3768 3.25 9.99998Z" fill="#636363"/>
</svg>
