<svg width="26" height="25" viewBox="0 0 26 25" fill="none" xmlns="http://www.w3.org/2000/svg">
<path d="M22.4204 8.62062L16.2216 7.71974L13.4506 2.10206C13.375 1.94825 13.2505 1.82374 13.0966 1.74806C12.7109 1.55763 12.2421 1.71632 12.0493 2.10206L9.27828 7.71974L3.07955 8.62062C2.90865 8.64503 2.7524 8.72559 2.63277 8.84767C2.48815 8.99631 2.40845 9.1963 2.4112 9.40368C2.41395 9.61105 2.49891 9.80886 2.64742 9.95362L7.13229 14.3262L6.07272 20.5005C6.04787 20.6441 6.06376 20.7918 6.11859 20.9269C6.17343 21.062 6.265 21.1789 6.38294 21.2646C6.50088 21.3503 6.64046 21.4012 6.78585 21.4115C6.93124 21.4219 7.07663 21.3913 7.20553 21.3233L12.75 18.4082L18.2944 21.3233C18.4458 21.4038 18.6215 21.4307 18.79 21.4014C19.2148 21.3281 19.5005 20.9253 19.4272 20.5005L18.3676 14.3262L22.8525 9.95362C22.9746 9.83399 23.0551 9.67774 23.0796 9.50684C23.1455 9.0796 22.8476 8.68409 22.4204 8.62062Z" fill="#636363"/>
</svg>
