<svg width="280" height="200" viewBox="0 0 280 200" fill="none" xmlns="http://www.w3.org/2000/svg">
<g clip-path="url(#clip0_1036_704)">
<path d="M101.888 151.708C101.04 149.906 100.947 147.894 101.625 146.037C102.304 144.179 103.708 142.598 105.586 141.579C106.212 141.241 105.64 140.367 105.011 140.706C102.858 141.847 101.25 143.649 100.493 145.77C99.7365 147.892 99.8828 150.186 100.905 152.218C101.192 152.814 102.173 152.3 101.888 151.708H101.888Z" fill="#3F3D56"/>
<path d="M102.214 153.067C100.678 150.653 101.039 147.765 101.592 145.155C102.168 142.43 102.924 139.664 102.27 136.892C101.973 135.547 101.271 134.298 100.238 133.278C99.7408 132.799 98.9371 133.515 99.4331 133.993C101.365 135.854 101.589 138.553 101.275 140.951C100.906 143.779 99.8585 146.534 99.9885 149.408C100.022 150.865 100.448 152.294 101.23 153.577C101.309 153.687 101.434 153.767 101.577 153.798C101.721 153.829 101.872 153.809 102 153.743C102.127 153.677 102.221 153.57 102.261 153.443C102.301 153.317 102.284 153.182 102.214 153.067L102.214 153.067Z" fill="#3F3D56"/>
<path d="M110.456 160.774H91.0977C90.6449 160.774 90.2107 160.614 89.8905 160.33C89.5703 160.046 89.3902 159.661 89.3896 159.259V154.215C89.3913 152.919 89.9725 151.677 91.0057 150.76C92.039 149.844 93.4398 149.328 94.901 149.327H97.7403C97.8913 149.326 98.036 149.273 98.1428 149.179C98.2495 149.084 98.3095 148.955 98.3097 148.822V146.465C98.31 146.242 98.4101 146.028 98.588 145.87C98.7659 145.712 99.0071 145.623 99.2586 145.623H102.295C102.547 145.623 102.788 145.712 102.966 145.87C103.144 146.028 103.244 146.242 103.244 146.465V148.822C103.244 148.955 103.304 149.084 103.411 149.179C103.518 149.273 103.663 149.326 103.814 149.327H106.653C108.114 149.328 109.515 149.844 110.548 150.76C111.581 151.677 112.163 152.919 112.164 154.215V159.259C112.164 159.661 111.984 160.046 111.663 160.33C111.343 160.614 110.909 160.774 110.456 160.774Z" fill="#CCCCCC"/>
<path d="M101.075 130.485C101.483 132.403 100.978 134.098 99.9482 134.271C98.9182 134.443 97.7528 133.027 97.3452 131.108C96.9376 129.189 98.1911 125.999 98.1911 125.999C98.1911 125.999 100.668 128.566 101.075 130.485Z" fill="#00ABB6"/>
<path d="M108.892 139.411C107.601 140.993 105.866 141.833 105.017 141.288C104.168 140.743 104.526 139.019 105.817 137.437C107.108 135.856 110.582 134.47 110.582 134.47C110.582 134.47 110.182 137.83 108.892 139.411Z" fill="#00ABB6"/>
<path d="M66.2082 30.4962C65.3605 28.6941 65.2674 26.6824 65.9456 24.8247C66.6239 22.967 68.0288 21.3857 69.9065 20.3665C70.5318 20.0293 69.9602 19.1554 69.3318 19.4943C67.178 20.6351 65.5705 22.4368 64.8137 24.5583C64.0568 26.6798 64.2032 28.9738 65.225 31.006C65.5123 31.6019 66.4935 31.0879 66.2082 30.4962H66.2082Z" fill="#3F3D56"/>
<path d="M66.5339 31.8547C64.998 29.4411 65.3594 26.5527 65.9119 23.9426C66.4886 21.2179 67.2445 18.4515 66.5904 15.6803C66.2938 14.3349 65.5916 13.0859 64.5586 12.0663C64.0611 11.587 63.2574 12.3027 63.7534 12.7805C65.685 14.6415 65.9089 17.3411 65.5956 19.7386C65.2261 22.5664 64.1788 25.322 64.3088 28.1955C64.3428 29.653 64.7685 31.0823 65.5506 32.3645C65.6295 32.4754 65.7538 32.5547 65.8974 32.5857C66.0409 32.6168 66.1924 32.5972 66.32 32.5311C66.4475 32.4649 66.5411 32.3574 66.581 32.2312C66.6209 32.1051 66.604 31.9701 66.5339 31.8547L66.5339 31.8547Z" fill="#3F3D56"/>
<path d="M74.7764 39.5623H55.4181C54.9652 39.5618 54.531 39.4021 54.2108 39.118C53.8906 38.834 53.7105 38.4488 53.71 38.0471V33.0032C53.7116 31.7071 54.2928 30.4645 55.326 29.548C56.3593 28.6315 57.7601 28.1159 59.2213 28.1145H62.0606C62.2116 28.1143 62.3563 28.0611 62.463 27.9664C62.5698 27.8717 62.6298 27.7433 62.63 27.6094V25.2525C62.6303 25.0293 62.7303 24.8154 62.9082 24.6576C63.0861 24.4998 63.3273 24.411 63.5789 24.4108H66.6155C66.8671 24.411 67.1083 24.4998 67.2862 24.6576C67.4641 24.8154 67.5642 25.0293 67.5645 25.2525V27.6094C67.5646 27.7433 67.6247 27.8717 67.7314 27.9664C67.8382 28.0611 67.9829 28.1143 68.1338 28.1145H70.9732C72.4344 28.1159 73.8352 28.6315 74.8684 29.548C75.9016 30.4645 76.4828 31.7071 76.4845 33.0032V38.0471C76.484 38.4488 76.3039 38.834 75.9837 39.118C75.6634 39.4021 75.2293 39.5618 74.7764 39.5623Z" fill="#CCCCCC"/>
<path d="M65.3946 9.27257C65.8022 11.1913 65.2976 12.8863 64.2676 13.0585C63.2375 13.2307 62.0721 11.8148 61.6645 9.89601C61.2569 7.97726 62.5105 4.78656 62.5105 4.78656C62.5105 4.78656 64.9871 7.35381 65.3946 9.27257Z" fill="#00ABB6"/>
<path d="M73.212 18.1993C71.9213 19.781 70.1866 20.6211 69.3376 20.0759C68.4885 19.5307 68.8466 17.8066 70.1373 16.225C71.428 14.6434 74.902 13.2574 74.902 13.2574C74.902 13.2574 74.5027 16.6177 73.212 18.1993Z" fill="#00ABB6"/>
<path d="M27.7091 91.5825H12.1465V96.633H27.7091V91.5825Z" fill="#00ABB6"/>
<path d="M27.7091 108.081H12.1465V113.131H27.7091V108.081Z" fill="#00ABB6"/>
<path d="M122.603 199.663H6.45279C4.74199 199.662 3.10182 199.058 1.8921 197.985C0.682382 196.912 0.0019179 195.457 0 193.939V5.72391C0.0019179 4.20635 0.682382 2.75145 1.8921 1.67837C3.10182 0.605302 4.74199 0.00170126 6.45279 0H122.603C124.314 0.00170837 125.954 0.605309 127.164 1.67838C128.373 2.75145 129.054 4.20636 129.056 5.72391V193.939C129.054 195.457 128.373 196.912 127.164 197.985C125.954 199.058 124.314 199.662 122.603 199.663ZM6.45279 0.673401C4.94327 0.674916 3.49606 1.20751 2.42867 2.15433C1.36127 3.10116 0.760859 4.38489 0.759152 5.72391V193.939C0.760859 195.278 1.36127 196.562 2.42867 197.509C3.49606 198.456 4.94327 198.988 6.45279 198.99H122.603C124.112 198.988 125.56 198.456 126.627 197.509C127.694 196.562 128.295 195.278 128.297 193.939V5.72391C128.295 4.38489 127.694 3.10116 126.627 2.15433C125.56 1.20751 124.112 0.674916 122.603 0.673401H6.45279Z" fill="#3F3D56"/>
<path d="M128.676 38.8729H0.379883V39.5463H128.676V38.8729Z" fill="#3F3D56"/>
<path d="M128.676 79.2877H0.379883V79.9611H128.676V79.2877Z" fill="#3F3D56"/>
<path d="M128.676 119.702H0.379883V120.376H128.676V119.702Z" fill="#3F3D56"/>
<path d="M128.676 160.117H0.379883V160.79H128.676V160.117Z" fill="#3F3D56"/>
<path d="M26.5701 120.539H13.6645C13.1613 120.538 12.6789 120.361 12.3231 120.045C11.9673 119.729 11.7672 119.302 11.7666 118.855V86.1953C11.7672 85.7489 11.9673 85.321 12.3231 85.0054C12.6789 84.6898 13.1613 84.5123 13.6645 84.5118H26.5701C27.0732 84.5123 27.5556 84.6898 27.9114 85.0054C28.2672 85.321 28.4674 85.7489 28.4679 86.1953V118.855C28.4674 119.302 28.2672 119.729 27.9114 120.045C27.5556 120.361 27.0732 120.538 26.5701 120.539ZM13.6645 85.1852C13.3626 85.1855 13.0731 85.292 12.8597 85.4814C12.6462 85.6707 12.5261 85.9275 12.5258 86.1953V118.855C12.5261 119.123 12.6462 119.38 12.8597 119.569C13.0731 119.758 13.3626 119.865 13.6645 119.865H26.5701C26.872 119.865 27.1614 119.758 27.3749 119.569C27.5884 119.38 27.7084 119.123 27.7088 118.855V86.1953C27.7084 85.9275 27.5884 85.6707 27.3749 85.4814C27.1614 85.292 26.872 85.1855 26.5701 85.1852H13.6645Z" fill="#3F3D56"/>
<path d="M51.6222 91.5825H36.0596V96.633H51.6222V91.5825Z" fill="#00ABB6"/>
<path d="M51.6222 108.081H36.0596V113.131H51.6222V108.081Z" fill="#00ABB6"/>
<path d="M50.4831 120.539H37.5776C37.0744 120.538 36.592 120.361 36.2362 120.045C35.8804 119.729 35.6803 119.302 35.6797 118.855V86.1953C35.6803 85.7489 35.8804 85.321 36.2362 85.0054C36.592 84.6898 37.0744 84.5123 37.5776 84.5118H50.4831C50.9863 84.5123 51.4687 84.6898 51.8245 85.0054C52.1803 85.321 52.3804 85.7489 52.381 86.1953V118.855C52.3804 119.302 52.1803 119.729 51.8245 120.045C51.4687 120.361 50.9863 120.538 50.4831 120.539ZM37.5776 85.1852C37.2757 85.1855 36.9862 85.292 36.7727 85.4814C36.5593 85.6707 36.4392 85.9275 36.4388 86.1953V118.855C36.4392 119.123 36.5593 119.38 36.7727 119.569C36.9862 119.758 37.2757 119.865 37.5776 119.865H50.4831C50.785 119.865 51.0745 119.758 51.288 119.569C51.5014 119.38 51.6215 119.123 51.6219 118.855V86.1953C51.6215 85.9275 51.5014 85.6707 51.288 85.4814C51.0745 85.292 50.785 85.1855 50.4831 85.1852H37.5776Z" fill="#3F3D56"/>
<path d="M89.5802 50.8417H74.0176V55.8922H89.5802V50.8417Z" fill="#00ABB6"/>
<path d="M89.5802 67.3401H74.0176V72.3906H89.5802V67.3401Z" fill="#00ABB6"/>
<path d="M88.4411 79.798H75.5356C75.0324 79.7975 74.55 79.6199 74.1942 79.3043C73.8384 78.9887 73.6383 78.5608 73.6377 78.1145V45.4546C73.6383 45.0082 73.8384 44.5803 74.1942 44.2647C74.55 43.9491 75.0324 43.7716 75.5356 43.7711H88.4411C88.9443 43.7716 89.4267 43.9491 89.7825 44.2647C90.1383 44.5803 90.3385 45.0082 90.339 45.4546V78.1145C90.3385 78.5608 90.1383 78.9887 89.7825 79.3043C89.4267 79.6199 88.9443 79.7975 88.4411 79.798ZM75.5356 44.4445C75.2337 44.4448 74.9442 44.5513 74.7307 44.7406C74.5173 44.93 74.3972 45.1868 74.3968 45.4546V78.1145C74.3972 78.3823 74.5173 78.639 74.7307 78.8284C74.9442 79.0178 75.2337 79.1243 75.5356 79.1246H88.4411C88.7431 79.1243 89.0325 79.0178 89.246 78.8284C89.4595 78.639 89.5795 78.3823 89.5799 78.1145V45.4546C89.5795 45.1868 89.4595 44.93 89.246 44.7406C89.0325 44.5513 88.7431 44.4448 88.4411 44.4445H75.5356Z" fill="#3F3D56"/>
<path d="M113.493 50.8417H97.9307V55.8922H113.493V50.8417Z" fill="#00ABB6"/>
<path d="M113.493 67.3401H97.9307V72.3906H113.493V67.3401Z" fill="#00ABB6"/>
<path d="M112.354 79.798H99.4487C98.9455 79.7975 98.4631 79.6199 98.1073 79.3043C97.7515 78.9887 97.5514 78.5608 97.5508 78.1145V45.4546C97.5514 45.0082 97.7515 44.5803 98.1073 44.2647C98.4631 43.9491 98.9455 43.7716 99.4487 43.7711H112.354C112.857 43.7716 113.34 43.9491 113.696 44.2647C114.051 44.5803 114.252 45.0082 114.252 45.4546V78.1145C114.252 78.5608 114.051 78.9887 113.696 79.3043C113.34 79.6199 112.857 79.7975 112.354 79.798ZM99.4487 44.4445C99.1468 44.4448 98.8573 44.5513 98.6438 44.7406C98.4303 44.93 98.3103 45.1868 98.3099 45.4546V78.1145C98.3103 78.3823 98.4303 78.639 98.6438 78.8284C98.8573 79.0178 99.1468 79.1243 99.4487 79.1246H112.354C112.656 79.1243 112.946 79.0178 113.159 78.8284C113.373 78.639 113.493 78.3823 113.493 78.1145V45.4546C113.493 45.1868 113.373 44.93 113.159 44.7406C112.946 44.5513 112.656 44.4448 112.354 44.4445H99.4487Z" fill="#3F3D56"/>
<path d="M70.7106 88.5663L56.1426 93.4222L58.1453 98.1499L72.7134 93.294L70.7106 88.5663Z" fill="#00ABB6"/>
<path d="M77.2536 104.01L62.6855 108.866L64.6883 113.594L79.2563 108.738L77.2536 104.01Z" fill="#00ABB6"/>
<path d="M68.3787 120.163C67.9927 120.162 67.6161 120.057 67.2989 119.862C66.9818 119.667 66.7391 119.391 66.6031 119.07L53.6519 88.4976C53.4755 88.0796 53.4931 87.6167 53.701 87.2102C53.9089 86.8038 54.29 86.4871 54.7608 86.3296L66.8417 82.3028C67.075 82.225 67.3233 82.1888 67.5724 82.1961C67.8215 82.2035 68.0666 82.2543 68.2935 82.3456C68.5205 82.437 68.725 82.5671 68.8952 82.7286C69.0655 82.89 69.1982 83.0797 69.2859 83.2866L82.2371 113.859C82.4135 114.277 82.3958 114.74 82.1879 115.147C81.98 115.553 81.5989 115.87 81.1281 116.027H81.1281L69.0472 120.054C68.8336 120.126 68.6071 120.162 68.3787 120.163ZM67.5099 82.8681C67.3729 82.8682 67.237 82.8903 67.1087 82.9332L55.0279 86.9599C54.7454 87.0545 54.5167 87.2445 54.392 87.4884C54.2673 87.7323 54.2566 88.0101 54.3625 88.2609L67.3137 118.834C67.3663 118.958 67.446 119.071 67.5481 119.168C67.6503 119.265 67.773 119.343 67.9091 119.398C68.0453 119.453 68.1923 119.483 68.3418 119.488C68.4913 119.492 68.6402 119.47 68.7802 119.424L80.861 115.397C81.1435 115.302 81.3722 115.112 81.497 114.869C81.6217 114.625 81.6323 114.347 81.5264 114.096L68.5752 83.5234C68.4936 83.3312 68.348 83.1655 68.1577 83.0485C67.9674 82.9314 67.7415 82.8685 67.5099 82.8681Z" fill="#3F3D56"/>
<path d="M18.3298 48.499L3.76172 53.3549L5.76448 58.0826L20.3325 53.2267L18.3298 48.499Z" fill="#00ABB6"/>
<path d="M24.8717 63.9429L10.3037 68.7988L12.3065 73.5265L26.8745 68.6706L24.8717 63.9429Z" fill="#00ABB6"/>
<path d="M15.9968 80.0953C15.6109 80.0946 15.2343 79.9897 14.9171 79.7946C14.5999 79.5995 14.3572 79.3234 14.2212 79.003L1.27002 48.4303C1.09363 48.0123 1.11131 47.5494 1.3192 47.1429C1.52708 46.7365 1.9082 46.4198 2.37895 46.2623L14.4599 42.2355C14.6932 42.1577 14.9415 42.1215 15.1906 42.1288C15.4397 42.1361 15.6847 42.1869 15.9117 42.2783C16.1387 42.3696 16.3431 42.4998 16.5134 42.6612C16.6837 42.8227 16.8164 43.0123 16.904 43.2193L29.8552 73.792C30.0316 74.21 30.014 74.6729 29.8061 75.0793C29.5982 75.4858 29.2171 75.8025 28.7463 75.96H28.7463L16.6654 79.9867C16.4517 80.0583 16.2252 80.0951 15.9968 80.0953ZM15.1281 42.8008C14.991 42.8009 14.8551 42.823 14.7269 42.8659L2.64608 46.8926C2.36359 46.9871 2.1349 47.1772 2.01016 47.4211C1.88541 47.6649 1.87481 47.9427 1.98066 48.1936L14.9319 78.7662C14.9845 78.8904 15.0641 79.0042 15.1663 79.101C15.2684 79.1979 15.3911 79.276 15.5273 79.3308C15.6635 79.3856 15.8105 79.416 15.96 79.4204C16.1094 79.4248 16.2584 79.4031 16.3984 79.3564L28.4792 75.3297C28.7617 75.2351 28.9904 75.0451 29.1151 74.8012C29.2399 74.5573 29.2505 74.2795 29.1446 74.0287L16.1934 43.4561C16.1118 43.2639 15.9662 43.0982 15.7759 42.9812C15.5856 42.8641 15.3597 42.8012 15.1281 42.8008Z" fill="#3F3D56"/>
<path d="M237.994 84.1751C244.493 84.1751 249.761 79.502 249.761 73.7374C249.761 67.9728 244.493 63.2997 237.994 63.2997C231.496 63.2997 226.228 67.9728 226.228 73.7374C226.228 79.502 231.496 84.1751 237.994 84.1751Z" fill="#2F2E41"/>
<path d="M185.719 121.371C186.275 121.562 186.871 121.642 187.466 121.607C188.06 121.571 188.639 121.421 189.161 121.165C189.683 120.91 190.136 120.556 190.487 120.129C190.838 119.701 191.079 119.211 191.194 118.692L223.548 100.585L217.659 94.7036L187.694 114.364C186.698 114.251 185.691 114.466 184.862 114.969C184.033 115.471 183.441 116.225 183.198 117.089C182.954 117.953 183.076 118.866 183.541 119.655C184.006 120.444 184.78 121.054 185.719 121.371Z" fill="#FFB8B8"/>
<path d="M216.793 105.399C216.507 105.399 216.225 105.336 215.973 105.214C215.722 105.093 215.508 104.917 215.353 104.704L211.607 99.5393C211.37 99.2133 211.284 98.8193 211.365 98.4384C211.446 98.0575 211.688 97.7186 212.042 97.4915L224.58 89.4535C225.188 89.0634 225.878 88.7855 226.61 88.6363C227.342 88.487 228.099 88.4694 228.839 88.5846C229.578 88.6997 230.284 88.9452 230.914 89.3065C231.545 89.6678 232.087 90.1377 232.51 90.6882C232.932 91.2388 233.225 91.8588 233.373 92.5117C233.52 93.1646 233.518 93.8371 233.367 94.4894C233.216 95.1417 232.92 95.7605 232.494 96.3092C232.069 96.858 231.524 97.3255 230.892 97.6842L217.71 105.161C217.436 105.316 217.118 105.399 216.793 105.399Z" fill="#2F2E41"/>
<path d="M222.391 195.572L217.738 195.572L215.523 179.65L222.392 179.65L222.391 195.572Z" fill="#FFB8B8"/>
<path d="M214.413 194.393H223.388V199.405H208.763C208.763 198.747 208.909 198.095 209.193 197.487C209.477 196.879 209.893 196.326 210.418 195.861C210.942 195.395 211.565 195.026 212.251 194.774C212.937 194.522 213.671 194.393 214.413 194.393Z" fill="#2F2E41"/>
<path d="M244.116 192.486L239.636 193.602L232.652 178.804L239.265 177.157L244.116 192.486Z" fill="#FFB8B8"/>
<path d="M236.076 193.263L244.717 191.112L246.244 195.938L232.163 199.444C231.962 198.81 231.905 198.147 231.993 197.494C232.081 196.84 232.313 196.209 232.677 195.635C233.04 195.061 233.527 194.556 234.11 194.149C234.694 193.742 235.362 193.441 236.076 193.263Z" fill="#2F2E41"/>
<path d="M256.654 168.052L238.588 149.139L249.551 137.34C249.711 137.166 249.913 137.027 250.142 136.932C250.371 136.837 250.621 136.787 250.874 136.788C251.126 136.789 251.376 136.839 251.604 136.936C251.832 137.032 252.033 137.173 252.193 137.346L268.781 155.405L256.654 168.052Z" fill="#00ABB6"/>
<path d="M239.316 149.28C239.583 148.854 239.913 148.463 240.298 148.117L250.762 138.707C251.172 138.336 251.724 138.116 252.309 138.091C253.505 138.041 255.465 138.148 256.012 139.312L241.885 149.564L239.316 149.28Z" fill="#F2F2F2"/>
<path d="M257.281 172.053C256.476 172.032 255.693 171.812 255.02 171.418L254.97 171.373L238.424 148.925L241.169 148.69L255.884 138.508C256.07 138.38 256.284 138.287 256.512 138.235C256.74 138.183 256.978 138.174 257.211 138.208C257.443 138.242 257.665 138.318 257.863 138.431C258.061 138.545 258.23 138.693 258.36 138.868L274.445 160.463C274.692 160.796 274.781 161.203 274.693 161.594C274.605 161.985 274.347 162.33 273.975 162.554L258.41 171.864C258.051 171.991 257.668 172.055 257.281 172.053Z" fill="#00ABB6"/>
<path d="M251.43 156.698C251.274 156.698 251.121 156.665 250.983 156.6C250.846 156.535 250.728 156.441 250.641 156.327L248.74 153.822C248.6 153.637 248.548 153.41 248.597 153.191C248.645 152.972 248.789 152.779 248.998 152.654L258.749 146.83C258.958 146.706 259.214 146.66 259.461 146.703C259.708 146.746 259.926 146.874 260.067 147.058L261.967 149.563C262.108 149.748 262.159 149.975 262.111 150.194C262.063 150.414 261.919 150.607 261.71 150.732L251.958 156.555C251.802 156.648 251.618 156.698 251.43 156.698Z" fill="#3F3D56"/>
<path d="M214.788 193.164C214.269 193.163 213.769 192.989 213.387 192.677C213.005 192.365 212.768 191.938 212.723 191.48C211.895 183.134 207.741 141.075 207.285 132.582C206.778 123.144 215.632 108.214 215.722 108.065L215.783 107.962L220.16 108.447V108.899L224.325 109.333L232.387 110.025L234.695 135.048L235.715 152.019L245.303 186.68C245.412 187.064 245.346 187.47 245.119 187.811C244.893 188.152 244.525 188.401 244.094 188.503L235.749 190.521C235.315 190.625 234.853 190.573 234.462 190.377C234.071 190.181 233.782 189.857 233.657 189.474L225.801 164.994C225.763 164.876 225.677 164.774 225.56 164.707C225.443 164.641 225.303 164.614 225.166 164.633C225.028 164.652 224.904 164.715 224.815 164.81C224.726 164.905 224.68 165.025 224.684 165.148L225.515 189.018C225.519 189.264 225.467 189.507 225.361 189.733C225.256 189.96 225.099 190.165 224.901 190.336C222.988 191.929 217.935 192.78 215.092 193.145C214.991 193.158 214.89 193.164 214.788 193.164Z" fill="#2F2E41"/>
<path d="M239.861 88.0109C238.536 86.7865 229.812 88.4691 227.875 90.273L214.614 109.501L236.545 113.12L241.391 88.6895L239.861 88.0109Z" fill="#00ABB6"/>
<path d="M234.113 136.862C233.641 136.862 233.172 136.793 232.725 136.657C231.451 136.269 229.889 135.863 228.083 135.451C220.175 133.648 217.383 127.872 219.785 118.286L219.846 118.043C222.101 108.95 226.352 100.339 232.355 92.7021L233.285 91.517C234.408 90.0873 235.979 88.9818 237.805 88.3379C239.63 87.6941 241.628 87.5402 243.551 87.8955C247.109 88.5466 249.02 89.4899 249.229 90.6996C249.641 93.0733 241.693 121.767 238.257 133.993C238.027 134.813 237.494 135.541 236.743 136.061C235.991 136.581 235.066 136.863 234.113 136.862L234.113 136.862Z" fill="#2F2E41"/>
<path d="M206.87 133.178C206.663 133.178 206.458 133.15 206.261 133.094L203.698 132.367C203.433 132.291 203.188 132.168 202.98 132.004C202.772 131.84 202.605 131.64 202.489 131.415C202.373 131.191 202.311 130.947 202.308 130.701C202.304 130.454 202.358 130.209 202.468 129.982L216.068 101.664C218.674 96.2624 223.231 91.7821 229.021 88.928H229.021C229.105 88.887 229.197 88.8617 229.293 88.8538C229.388 88.8459 229.484 88.8555 229.575 88.882C229.659 88.9056 229.736 88.9445 229.802 88.9962C229.868 89.0479 229.92 89.1113 229.957 89.1822C231.556 92.3036 222.85 107.076 215.855 118.945C212.273 125.023 209.179 130.272 208.827 131.769C208.733 132.167 208.487 132.525 208.131 132.782C207.774 133.038 207.329 133.178 206.87 133.178Z" fill="#2F2E41"/>
<path d="M248.948 139.631C249.426 139.314 249.82 138.909 250.102 138.443C250.384 137.977 250.547 137.462 250.58 136.934C250.614 136.406 250.516 135.878 250.295 135.387C250.073 134.897 249.733 134.455 249.298 134.093L249.19 100.159L240.444 101.461L243.305 134.424C242.668 135.113 242.339 135.984 242.378 136.874C242.418 137.763 242.824 138.609 243.519 139.251C244.215 139.893 245.152 140.286 246.152 140.356C247.153 140.426 248.148 140.168 248.948 139.631Z" fill="#FFB8B8"/>
<path d="M241.828 108.578C241.394 108.578 240.977 108.432 240.661 108.169C240.344 107.906 240.152 107.546 240.124 107.163L239.106 93.4705C239.01 92.1531 239.507 90.8556 240.488 89.8627C241.469 88.8698 242.854 88.2626 244.339 88.1741C245.101 88.1296 245.866 88.2235 246.586 88.4503C247.306 88.6771 247.966 89.0318 248.526 89.4929C249.086 89.9539 249.534 90.5115 249.843 91.1315C250.152 91.7515 250.314 92.4209 250.321 93.0987L250.459 106.977C250.463 107.378 250.287 107.764 249.971 108.05C249.654 108.337 249.223 108.501 248.771 108.506L241.848 108.578L241.828 108.578Z" fill="#2F2E41"/>
<path d="M235.57 84.706C240.719 84.706 244.893 81.0035 244.893 76.4363C244.893 71.869 240.719 68.1666 235.57 68.1666C230.421 68.1666 226.247 71.869 226.247 76.4363C226.247 81.0035 230.421 84.706 235.57 84.706Z" fill="#FFB8B8"/>
<path d="M243.321 82.2229C244.017 80.26 244.655 77.9457 243.279 76.2894C242.288 75.0959 240.508 74.634 238.838 74.5678C237.168 74.5017 235.494 74.7527 233.828 74.6352C232.162 74.5178 230.401 73.9345 229.555 72.6561C228.457 70.9985 229.387 68.7153 231.151 67.599C232.915 66.4827 235.246 66.3268 237.393 66.5868C240.11 66.8729 242.665 67.8865 244.716 69.4925C246.712 71.1265 248.013 73.4817 247.955 75.8904C247.897 78.2991 246.374 80.6977 243.947 81.7792" fill="#2F2E41"/>
<path d="M240.998 64.1529C238.766 63.5431 237.736 60.9257 238.734 59.053C239.732 57.1802 242.284 56.1995 244.6 56.4603C246.917 56.7212 248.958 58.0396 250.367 59.6922C251.775 61.3448 252.624 63.3148 253.332 65.2888C254.04 67.2628 254.628 69.2796 255.595 71.1652C257.13 74.0624 259.496 76.5503 262.458 78.3791C265.42 80.2079 268.872 81.313 272.467 81.5836C274.035 81.6843 275.661 81.6121 277.089 81.031C278.518 80.4499 279.716 79.2784 279.876 77.8917C280.689 82.8173 277.458 88.052 272.342 90.0988C267.227 92.1457 260.665 90.8289 257.041 87.0282C253.499 83.314 252.95 78.0701 253.035 73.2059C253.059 71.872 253.114 70.513 252.699 69.2308C252.283 67.9487 251.3 66.7296 249.868 66.3224C248.713 65.9939 247.461 66.2307 246.276 66.4636C245.092 66.6966 243.834 66.9208 242.687 66.5696C241.54 66.2185 240.616 65.0615 241.079 64.0663" fill="#2F2E41"/>
<path d="M277.881 200H177.673C177.572 200 177.475 199.965 177.404 199.901C177.333 199.838 177.293 199.753 177.293 199.663C177.293 199.574 177.333 199.488 177.404 199.425C177.475 199.362 177.572 199.327 177.673 199.327H277.881C277.981 199.327 278.078 199.362 278.149 199.425C278.22 199.488 278.26 199.574 278.26 199.663C278.26 199.753 278.22 199.838 278.149 199.901C278.078 199.965 277.981 200 277.881 200Z" fill="#CCCCCC"/>
</g>
<defs>
<clipPath id="clip0_1036_704">
<rect width="280" height="200" fill="white"/>
</clipPath>
</defs>
</svg>
